<?xml version="1.0" standalone="no"?>
<!DOCTYPE svg PUBLIC "-//W3C//DTD SVG 20010904//EN"
 "http://www.w3.org/TR/2001/REC-SVG-20010904/DTD/svg10.dtd">
<svg version="1.0" xmlns="http://www.w3.org/2000/svg"
 width="5519.000000pt" height="4280.000000pt" viewBox="0 0 5519.000000 4280.000000"
 preserveAspectRatio="xMidYMid meet">

<g transform="translate(0.000000,4280.000000) scale(0.100000,-0.100000)"
fill="#000000" stroke="none">
<path d="M26345 42144 c-212 -9 -598 -36 -825 -59 -1756 -178 -3140 -577
-4408 -1271 -1177 -646 -2379 -1623 -3269 -2659 -375 -437 -701 -874 -1418
-1900 -571 -817 -884 -1261 -996 -1411 -136 -181 -290 -355 -406 -457 l-98
-87 -70 5 c-38 3 -164 12 -280 20 -762 55 -1512 159 -2064 287 -460 106 -744
199 -1231 403 -102 43 -230 95 -285 116 l-100 39 73 -73 c81 -82 47 -64 461
-234 635 -259 1379 -429 2401 -548 1321 -153 2538 -150 3575 10 237 36 583
107 756 155 284 78 630 210 688 263 38 35 429 122 706 158 148 19 468 17 585
-5 139 -26 140 -28 35 -76 -148 -68 -352 -154 -478 -200 -65 -23 -121 -49
-124 -57 -7 -18 16 -35 36 -28 32 12 407 85 531 104 313 47 615 64 878 51 176
-10 411 -36 424 -49 4 -3 -75 -24 -175 -46 l-182 -40 290 -2 c2684 -19 5005
-337 6640 -911 230 -80 416 -164 890 -402 456 -229 625 -309 815 -385 130 -52
291 -107 297 -101 10 10 -75 156 -143 246 -116 154 -337 365 -467 447 -23 14
-45 30 -48 35 -11 17 -243 143 -484 263 -330 164 -695 319 -1040 443 -77 28
-148 54 -158 57 -13 6 0 15 55 39 224 97 391 287 468 531 28 88 38 289 21 391
-18 99 -69 229 -124 312 -115 172 -271 287 -474 348 -78 24 -105 27 -233 27
-128 0 -155 -3 -233 -27 -241 -73 -421 -225 -526 -446 -64 -134 -76 -192 -76
-365 0 -112 4 -166 18 -215 20 -75 87 -220 123 -267 13 -17 24 -34 24 -36 0
-2 -53 9 -117 25 -1093 266 -2030 397 -3378 469 -310 17 -1786 23 -2275 10
-1281 -35 -1859 -62 -2350 -112 -178 -18 -485 -58 -569 -75 l-34 -7 40 54 c54
72 108 181 134 271 30 105 37 288 14 399 -96 474 -568 770 -1039 649 -292 -74
-530 -317 -607 -619 -27 -104 -26 -286 1 -401 56 -233 217 -436 432 -544 79
-40 84 -45 60 -51 -54 -13 -269 -131 -449 -247 l-93 -60 -192 -10 c-198 -10
-1210 -4 -1260 8 -26 6 -21 12 121 153 81 80 196 207 255 281 101 127 737
1013 1241 1730 800 1137 1211 1647 1805 2241 461 461 855 804 1355 1181 404
303 886 615 1317 851 1274 698 2745 1116 4473 1271 334 30 358 28 130 -9
-1163 -192 -2123 -454 -3097 -844 -288 -115 -826 -356 -853 -382 -5 -5 74 25
175 67 210 86 246 100 495 190 866 316 1764 549 2530 659 867 124 1559 107
2109 -51 205 -59 210 -77 31 -113 -232 -47 -637 -174 -598 -188 7 -2 70 3 140
12 166 22 580 31 693 16 174 -23 300 -68 401 -141 57 -41 80 -74 62 -90 -4 -4
-75 -26 -158 -49 -167 -47 -536 -168 -548 -180 -4 -4 114 -5 262 -3 1005 17
1983 -158 2776 -497 155 -67 422 -201 553 -280 57 -33 105 -61 107 -61 4 0
274 -184 330 -226 90 -65 244 -194 332 -278 78 -74 92 -92 81 -103 -11 -11
-30 -7 -108 21 -117 42 -286 80 -445 101 -66 8 -133 17 -150 20 -29 4 -29 4
-10 -11 11 -8 65 -40 120 -70 55 -30 123 -69 150 -86 47 -30 264 -186 275
-198 3 -3 36 -32 74 -65 104 -89 222 -212 309 -320 38 -47 139 -197 183 -272
77 -131 73 -148 -28 -109 -68 25 -220 93 -358 159 -166 79 -274 126 -279 121
-3 -2 11 -19 30 -36 365 -332 745 -727 1049 -1093 69 -82 127 -152 130 -155
27 -23 324 -435 426 -590 192 -290 279 -438 417 -700 410 -783 664 -1685 716
-2540 8 -141 2 -173 -31 -154 -43 26 -237 256 -326 386 -34 50 -62 81 -68 75
-2 -1 12 -55 30 -117 103 -349 155 -617 163 -848 7 -180 -10 -379 -33 -409
-13 -17 -17 -15 -50 22 -44 50 -97 130 -199 307 -79 136 -102 164 -91 111 31
-157 42 -768 18 -1018 -103 -1067 -486 -2103 -1167 -3158 -60 -92 -247 -361
-272 -392 -5 -5 -37 -48 -73 -95 -67 -90 -230 -298 -266 -340 -12 -14 -68 -79
-123 -145 -56 -66 -112 -131 -125 -145 -12 -14 -67 -74 -121 -135 -55 -60
-194 -205 -310 -321 -183 -183 -260 -256 -461 -433 -22 -20 -85 -72 -140 -116
-54 -44 -101 -82 -104 -85 -3 -3 -55 -43 -117 -88 -233 -171 -481 -319 -685
-409 -128 -56 -303 -115 -331 -111 -15 2 -25 15 -35 48 -64 215 -114 412 -202
800 -125 550 -224 884 -342 1151 -61 138 -173 349 -185 349 -12 0 6 -393 28
-585 29 -265 32 -588 6 -725 -19 -104 -69 -266 -92 -296 -14 -19 -14 -19 -34
1 -51 52 -190 337 -361 740 -148 348 -295 625 -437 820 -75 102 -75 102 -174
210 -172 185 -513 470 -810 674 -191 132 -399 270 -399 264 0 -3 40 -69 89
-147 293 -468 506 -921 681 -1446 105 -319 224 -828 274 -1180 125 -873 86
-1765 -110 -2510 -207 -787 -716 -1723 -1350 -2480 -67 -80 -130 -152 -140
-162 -22 -19 -213 -58 -574 -118 -681 -113 -1314 -175 -2140 -212 -380 -17
-1609 -17 -1925 0 -1262 67 -2044 189 -3255 507 -438 115 -1014 309 -1485 499
-1464 593 -2715 1479 -4191 2968 -1591 1605 -2854 3252 -3749 4888 -154 281
-411 800 -560 1130 -71 157 -158 346 -193 420 -128 269 -275 599 -340 762 -58
148 -69 169 -94 177 -15 6 -28 7 -28 2 0 -32 144 -413 243 -641 463 -1070 519
-1195 706 -1570 719 -1437 1756 -2905 3095 -4380 952 -1048 1829 -1871 2651
-2486 185 -139 368 -270 473 -340 73 -48 74 -49 68 -84 -46 -264 -80 -563 -97
-845 -14 -232 -6 -725 15 -940 l13 -140 -28 -100 c-92 -329 -230 -658 -555
-1327 -341 -702 -466 -994 -642 -1493 -74 -212 -203 -632 -206 -670 0 -13 -4
-21 -8 -19 -9 6 -158 -85 -158 -97 0 -5 -11 -14 -25 -19 -41 -15 -135 -91
-128 -103 3 -5 1 -7 -4 -4 -14 9 -115 -82 -106 -95 3 -6 2 -8 -4 -5 -11 7
-203 -190 -203 -209 0 -3 -14 -19 -30 -36 -17 -16 -28 -33 -25 -38 3 -4 -1
-10 -8 -13 -23 -9 -195 -301 -189 -321 2 -6 0 -8 -4 -4 -9 10 -46 -50 -39 -63
4 -5 11 -6 17 -3 7 4 8 2 4 -5 -6 -8 -11 -9 -20 -1 -10 8 -21 -4 -45 -50 -18
-33 -29 -65 -25 -72 4 -6 3 -8 -3 -5 -13 8 -131 -254 -144 -321 -1 -4 -6 -18
-11 -32 -5 -14 -10 -39 -11 -56 -1 -18 -5 -30 -8 -28 -6 4 -57 -207 -65 -271
-2 -22 -11 -80 -19 -128 -20 -126 -39 -447 -32 -547 4 -47 9 -137 12 -200 3
-63 12 -160 20 -215 8 -55 15 -107 16 -115 2 -32 31 -206 36 -220 3 -8 7 -27
9 -42 l2 -26 -66 25 c-490 189 -1157 374 -1554 433 -674 99 -1224 -1 -1698
-307 -268 -174 -546 -459 -931 -958 -299 -387 -580 -818 -731 -1120 -28 -55
-52 -102 -54 -104 -1 -2 -17 7 -33 18 -99 71 -300 140 -483 167 -155 22 -491
15 -665 -15 -372 -64 -737 -191 -1173 -408 -440 -218 -741 -407 -1530 -958
-207 -145 -509 -352 -670 -459 -332 -223 -475 -328 -612 -449 -407 -363 -591
-777 -549 -1238 20 -220 63 -375 152 -553 281 -561 850 -915 1774 -1101 717
-144 1649 -163 2444 -49 l173 25 97 -93 c198 -190 430 -315 819 -442 287 -93
564 -154 887 -195 285 -36 475 -44 875 -38 368 5 566 19 917 62 67 8 126 15
131 15 5 0 12 -69 15 -162 6 -187 29 -290 97 -436 154 -327 433 -547 1000
-785 426 -179 1183 -482 1368 -547 63 -22 91 -37 88 -46 -3 -7 -27 -43 -54
-81 -382 -530 -341 -936 125 -1240 280 -183 681 -314 1259 -413 828 -142 1599
-177 2309 -104 131 13 448 53 558 71 l37 6 -49 -99 c-60 -119 -83 -203 -83
-305 -1 -96 21 -171 72 -247 186 -278 671 -457 1522 -562 396 -49 875 -65
1199 -40 393 31 871 108 1206 195 264 69 696 216 828 283 122 61 215 135 215
172 0 12 7 31 17 43 l16 22 181 -32 c470 -83 803 -119 1258 -139 l156 -7 21
-56 c133 -366 626 -700 1341 -907 773 -225 2079 -394 3040 -394 953 1 2194
176 3155 446 208 59 851 271 1030 341 275 106 474 218 603 338 54 50 63 63 61
89 -2 22 8 48 35 88 l39 58 536 0 c955 0 1225 26 2221 210 520 96 615 112
1025 175 537 82 736 121 992 196 578 168 974 481 1192 939 80 170 111 272 167
548 4 18 8 21 23 13 10 -6 22 -7 26 -3 3 4 5 0 3 -8 -2 -9 4 -14 14 -14 10 1
16 -2 15 -7 -3 -11 175 -129 185 -123 4 3 8 1 8 -5 0 -26 488 -288 517 -277 8
3 11 1 8 -4 -5 -9 1 -12 21 -9 4 0 10 -3 13 -9 3 -5 20 -14 36 -20 17 -6 77
-29 134 -51 57 -22 108 -38 112 -35 5 3 9 0 9 -6 0 -7 7 -10 15 -6 8 3 15 2
15 -3 0 -14 66 -29 83 -19 12 6 15 5 12 -4 -4 -10 22 -22 88 -42 51 -15 102
-28 112 -29 11 -1 22 -5 25 -8 6 -7 207 -55 265 -63 121 -17 195 -19 212 -5
14 12 16 12 8 0 -7 -12 4 -13 69 -8 91 8 168 26 160 38 -3 5 2 6 11 3 27 -11
161 63 218 119 71 69 99 130 105 225 4 62 2 74 -9 67 -11 -6 -11 -5 -3 4 13
14 7 51 -8 51 -5 0 -6 4 -3 10 7 11 -22 71 -39 82 -6 4 -7 8 -3 8 11 0 -6 29
-48 84 l-35 46 33 0 c134 1 777 22 922 30 611 36 1181 101 1498 170 497 110
822 225 2025 715 145 59 264 106 266 104 124 -177 257 -285 491 -402 346 -172
816 -287 1565 -381 808 -102 1437 -97 2250 20 594 85 966 173 1525 358 342
114 522 187 638 260 103 63 189 143 186 170 -2 12 14 48 35 80 90 138 121 273
113 480 -8 206 -54 382 -163 629 -85 194 -245 464 -389 654 l-67 88 129 8
c518 30 796 61 1100 123 925 187 1491 539 1772 1100 146 293 193 630 130 946
-73 366 -312 696 -735 1014 -61 46 -243 172 -404 280 -161 107 -463 314 -670
459 -789 551 -1090 740 -1530 958 -436 217 -801 344 -1173 408 -174 30 -510
37 -665 15 -183 -27 -384 -96 -483 -167 -16 -11 -32 -20 -33 -18 -2 2 -31 58
-64 124 -236 465 -759 1196 -1171 1640 -347 373 -679 581 -1101 689 -540 138
-1115 85 -2020 -189 -157 -48 -525 -171 -552 -186 -11 -6 -18 -4 -22 7 -3 8
-2 13 2 10 11 -7 53 253 55 337 1 36 5 63 9 61 9 -6 15 119 6 132 -4 6 -5 14
-1 18 14 14 16 46 18 281 l2 240 51 225 c80 357 125 611 186 1045 80 569 110
947 110 1390 0 294 -5 394 -30 635 l-7 65 104 -123 c111 -130 128 -141 178
-105 l24 16 -6 221 c-8 321 -48 549 -147 846 -32 96 -62 184 -66 194 -7 19 -6
19 28 -2 44 -27 99 -29 122 -3 27 30 40 191 26 330 -26 273 -113 545 -289 901
-42 85 -78 160 -80 165 -2 6 18 -16 44 -47 34 -42 54 -58 72 -58 34 0 77 48
105 118 19 49 22 75 22 192 1 156 -9 210 -90 495 -75 262 -337 1083 -449 1404
-704 2023 -1819 4263 -3173 6376 -892 1390 -2031 2925 -2843 3831 -174 194
-858 879 -1066 1068 l-151 137 -37 102 c-63 171 -208 531 -299 742 -105 241
-399 837 -527 1065 -565 1013 -1211 1873 -1994 2655 -666 666 -1295 1105
-2325 1624 -441 223 -793 366 -1050 426 -41 10 -76 19 -78 21 -2 1 4 14 14 29
17 26 17 26 -27 71 -165 169 -482 275 -899 300 -105 7 -112 8 -84 20 74 30 71
71 -10 136 -150 120 -337 182 -697 227 -151 19 -651 61 -979 81 -168 11 -982
20 -1145 14z m-9130 -6093 c51 -23 119 -96 135 -145 20 -63 9 -156 -26 -212
-34 -56 -111 -108 -173 -118 -142 -22 -282 97 -284 242 -1 100 58 193 148 233
53 24 147 24 200 0z m10022 -346 c97 -41 156 -127 156 -229 0 -186 -190 -304
-358 -222 -87 43 -135 123 -135 223 0 69 23 125 71 172 18 19 52 42 74 52 50
23 142 25 192 4z m8953 -11486 c470 -44 960 -201 1385 -444 120 -68 339 -213
405 -267 19 -16 40 -32 45 -36 54 -38 240 -210 347 -321 527 -544 841 -1224
923 -1996 17 -162 20 -540 5 -550 -26 -16 -293 150 -565 350 -87 64 -166 120
-174 123 -8 3 6 -23 32 -59 26 -35 93 -134 150 -219 306 -457 464 -807 512
-1138 20 -133 17 -197 -7 -197 -9 0 -155 137 -325 305 -308 306 -521 494 -647
576 l-29 18 13 -24 c7 -14 37 -61 65 -105 62 -96 150 -240 187 -310 57 -105
221 -432 238 -475 10 -25 29 -70 43 -100 73 -161 186 -470 261 -715 53 -171
156 -556 156 -582 0 -7 -19 -17 -42 -23 -88 -23 -408 -134 -549 -190 -276
-110 -638 -283 -821 -393 -40 -24 -118 -70 -173 -102 -55 -32 -114 -69 -131
-82 -17 -12 -34 -23 -38 -23 -14 0 -455 -305 -476 -329 -3 -4 -23 -19 -45 -36
-21 -16 -46 -36 -55 -45 -8 -8 -62 -53 -120 -100 -469 -379 -978 -898 -1261
-1285 -243 -332 -327 -479 -692 -1215 -202 -410 -382 -745 -424 -792 -22 -25
-42 -22 -53 7 -17 46 -28 317 -19 480 11 192 65 605 95 720 8 32 -62 -117
-145 -310 -172 -397 -313 -782 -621 -1700 -387 -1153 -539 -1543 -807 -2080
-251 -501 -467 -810 -803 -1145 -311 -312 -607 -524 -1020 -730 -632 -317
-1298 -496 -2130 -576 -226 -21 -776 -30 -1025 -15 -1745 100 -3137 677 -4244
1756 -581 568 -1061 1241 -1518 2130 -79 154 -142 271 -139 260 51 -207 128
-638 150 -840 19 -180 28 -433 19 -510 -7 -55 -10 -60 -33 -60 -23 0 -26 6
-62 170 -86 393 -141 622 -184 771 -140 488 -322 829 -566 1059 -38 37 -72 64
-75 62 -5 -6 6 -45 107 -377 123 -403 161 -571 180 -798 12 -143 3 -296 -26
-425 -16 -69 -33 -89 -58 -68 -8 6 -49 112 -92 236 -43 123 -82 221 -86 219
-4 -3 -5 1 -2 9 2 7 -6 45 -19 83 -14 38 -28 81 -31 96 -3 15 -11 40 -17 55
-7 15 -13 35 -14 43 -5 36 -26 100 -35 105 -6 4 -8 10 -5 15 7 11 -115 384
-127 388 -4 2 -6 7 -3 12 6 10 -35 124 -47 128 -4 2 -6 7 -3 12 6 10 -85 254
-97 258 -4 2 -6 7 -3 12 4 7 -4 31 -40 115 -7 17 -23 55 -35 85 -12 30 -30 73
-40 95 -10 22 -34 81 -55 130 -20 50 -45 106 -55 125 -27 54 -105 229 -125
283 -10 26 -22 47 -27 47 -5 0 -7 -4 -3 -9 3 -5 1 -12 -4 -15 -10 -7 -9 13 1
29 8 12 -113 287 -242 553 -635 1305 -1557 2395 -2640 3119 -332 222 -765 457
-1055 573 -99 39 -202 82 -230 95 -28 12 -134 50 -236 83 -759 248 -1434 295
-2050 142 -223 -55 -194 -36 -229 -148 -16 -53 -45 -151 -63 -217 l-34 -120
-42 -10 c-24 -5 -40 -13 -36 -17 3 -3 1 -9 -6 -14 -8 -4 -10 -3 -5 4 4 7 0 12
-10 12 -28 0 -219 -53 -222 -62 -2 -4 -7 -6 -12 -3 -7 4 -97 -23 -145 -44 -11
-5 -53 -21 -93 -37 -40 -15 -75 -31 -78 -36 -3 -4 -14 -8 -24 -8 -10 0 -25 -7
-34 -15 -8 -8 -17 -12 -19 -8 -13 22 165 569 291 898 143 374 245 605 497
1125 346 714 473 1030 555 1373 48 203 52 240 41 335 -28 243 -33 638 -11 952
20 283 75 724 89 718 4 -2 63 -39 132 -82 l125 -80 -3 -110 c-2 -61 -13 -270
-24 -464 -20 -363 -21 -406 -12 -384 6 15 29 16 38 2 4 -6 -10 -80 -30 -166
-20 -85 -39 -201 -44 -257 -16 -210 -21 -215 405 415 294 436 380 558 394 558
9 0 180 -77 187 -84 4 -4 -129 -305 -236 -533 -39 -84 -71 -157 -71 -163 0
-30 217 -364 336 -516 270 -346 547 -617 914 -896 165 -125 206 -152 465 -307
612 -367 1277 -637 2062 -837 1370 -348 2943 -446 4743 -294 1787 151 3296
487 4561 1014 967 403 2325 1176 3169 1804 222 165 440 342 985 797 838 700
1073 881 1589 1224 207 138 360 231 377 231 5 0 20 6 32 14 36 24 345 161 452
201 124 46 201 69 330 97 164 35 632 44 915 17z m-22213 -6334 c0 -8 -4 -12
-9 -9 -5 3 -6 10 -3 15 9 13 12 11 12 -6z m971 -58 c34 -1 62 -4 62 -7 0 -3
17 -7 38 -8 20 -2 82 -9 137 -16 55 -8 107 -14 115 -14 8 -1 88 -15 178 -32
90 -17 168 -27 174 -24 7 4 8 2 4 -4 -10 -16 36 -16 54 1 12 10 12 9 2 -4 -10
-14 -2 -18 68 -33 44 -9 85 -14 92 -10 7 5 8 3 3 -6 -6 -10 -3 -12 13 -8 14 4
20 2 16 -4 -5 -7 2 -9 19 -6 15 3 24 1 21 -3 -3 -5 2 -9 11 -9 18 0 356 -102
418 -125 20 -8 37 -12 37 -9 0 4 7 1 15 -6 8 -6 20 -8 27 -4 7 4 10 3 5 -1 -4
-5 55 -33 130 -62 76 -30 144 -57 152 -60 10 -5 12 -2 7 8 -4 8 -1 6 7 -3 7
-9 42 -29 78 -43 35 -15 72 -31 82 -36 10 -5 23 -7 29 -3 6 4 8 3 4 -4 -5 -9
32 -29 43 -23 2 2 7 -1 10 -6 11 -15 222 -113 232 -107 5 3 8 0 7 -8 -2 -7 5
-12 14 -12 10 1 16 -2 13 -6 -4 -7 76 -48 83 -42 2 2 9 -3 15 -11 7 -8 37 -28
68 -45 32 -17 68 -38 83 -47 14 -9 31 -13 37 -9 7 4 9 3 6 -4 -7 -10 77 -65
100 -65 7 0 11 -3 8 -5 -3 -3 53 -43 123 -90 70 -46 194 -135 276 -196 81 -61
153 -110 158 -108 5 1 7 -2 4 -7 -3 -5 6 -17 21 -27 15 -9 44 -32 63 -49 19
-18 80 -71 135 -119 55 -48 128 -115 163 -149 34 -34 62 -58 62 -54 0 4 16
-11 36 -33 20 -22 41 -37 48 -33 6 3 8 2 3 -2 -10 -12 63 -86 77 -78 6 3 8 2
3 -2 -9 -11 63 -86 75 -79 5 3 7 1 6 -5 -4 -13 243 -281 254 -275 5 3 7 1 6
-4 -5 -16 144 -182 156 -175 6 3 8 3 4 -2 -10 -11 42 -76 55 -68 5 3 7 1 3 -5
-3 -6 9 -27 28 -47 19 -20 37 -43 40 -51 3 -9 11 -12 17 -8 8 4 9 3 5 -4 -4
-7 -2 -12 5 -12 7 0 10 -3 6 -6 -3 -4 9 -25 27 -48 19 -22 61 -80 94 -128 32
-48 63 -84 67 -80 5 4 5 2 2 -4 -3 -6 10 -37 30 -70 39 -64 62 -104 101 -174
40 -72 131 -211 170 -258 31 -40 178 -291 195 -335 4 -11 12 -15 18 -11 7 4 9
3 5 -4 -9 -14 75 -183 87 -175 6 3 7 1 3 -5 -8 -13 64 -163 75 -156 4 2 11 -1
15 -7 4 -8 3 -9 -4 -5 -7 4 -12 2 -12 -3 0 -6 5 -11 11 -11 5 0 8 -4 5 -9 -8
-13 70 -172 79 -163 5 4 5 2 1 -5 -8 -14 24 -84 36 -77 4 3 5 -1 2 -9 -3 -8
12 -49 32 -93 21 -43 38 -81 39 -84 8 -29 19 -57 28 -69 6 -7 12 -19 13 -27 3
-20 115 -298 123 -304 3 -3 8 -14 9 -24 2 -11 24 -74 49 -140 61 -162 158
-442 188 -541 59 -192 71 -226 79 -218 5 4 6 3 2 -4 -9 -15 54 -244 65 -237 4
2 11 -1 15 -7 4 -8 3 -9 -4 -5 -19 11 -14 -15 6 -31 9 -8 11 -12 5 -8 -9 4
-13 -1 -13 -15 0 -12 4 -19 9 -16 5 4 7 -4 3 -16 -4 -17 -2 -20 13 -14 14 5
16 4 7 -7 -9 -10 -3 -46 20 -145 28 -116 34 -130 47 -119 14 10 14 10 3 -4
-11 -14 -9 -34 8 -115 84 -392 136 -702 161 -954 6 -63 13 -122 16 -130 3 -8
6 -40 7 -70 13 -296 20 -419 25 -416 7 5 -4 -672 -13 -809 -4 -55 -9 -141 -11
-192 -2 -51 -6 -97 -10 -102 -3 -6 -5 -25 -5 -43 2 -76 -67 -609 -126 -973 -3
-16 -27 -142 -54 -280 -28 -137 -48 -260 -45 -273 2 -12 0 -20 -4 -18 -7 5
-16 -27 -35 -119 -8 -34 -67 -279 -72 -298 -8 -26 -22 -11 -34 36 -6 23 -27
77 -47 119 -31 68 -38 76 -52 65 -14 -10 -14 -10 -3 5 12 15 9 24 -19 65 -38
57 -140 164 -150 157 -4 -2 -9 2 -12 9 -6 15 -112 69 -177 91 -134 43 -342 50
-474 16 -44 -11 -81 -20 -83 -20 -2 0 -1 -4 2 -10 8 -12 -5 -13 -23 -1 -12 7
-11 13 1 37 19 37 95 224 99 244 2 8 6 17 9 20 11 9 121 303 123 326 0 12 4
20 9 17 6 -4 8 2 11 40 1 6 4 14 7 17 6 4 159 446 159 458 0 2 -6 0 -12 -3 -7
-4 -5 0 4 8 9 7 22 31 27 53 6 21 23 85 40 141 16 55 32 114 35 130 2 15 14
73 25 128 25 126 49 343 55 505 2 69 2 114 0 100 -3 -14 -14 -67 -25 -119 -11
-52 -17 -101 -14 -110 3 -8 3 -12 -1 -8 -9 8 -66 -212 -58 -224 3 -5 1 -9 -4
-9 -7 0 -35 -93 -37 -125 0 -5 -3 -15 -7 -20 -6 -10 -38 -127 -38 -140 0 -3 6
-3 13 0 6 4 4 0 -5 -8 -20 -16 -25 -42 -6 -31 7 4 8 3 4 -5 -4 -6 -11 -9 -15
-7 -4 3 -25 -59 -45 -137 -21 -78 -49 -177 -63 -219 -13 -43 -22 -82 -19 -87
4 -5 3 -11 -1 -13 -10 -4 -51 -123 -55 -158 -2 -14 -6 -27 -9 -30 -3 -3 -21
-45 -39 -95 -40 -109 -112 -279 -150 -355 -16 -31 -30 -65 -32 -75 -1 -11 -6
-22 -9 -25 -16 -13 -49 -92 -43 -102 4 -6 3 -8 -4 -4 -9 5 -29 -32 -23 -43 2
-2 -2 -7 -7 -10 -17 -11 -53 -91 -46 -103 4 -6 3 -8 -3 -5 -6 4 -18 -11 -28
-33 -10 -22 -21 -40 -25 -40 -4 0 -10 30 -14 67 -13 131 -60 309 -108 415 -17
37 -35 65 -39 62 -5 -3 -6 1 -3 9 3 8 1 18 -4 21 -12 7 -24 -22 -15 -36 3 -6
1 -8 -4 -5 -20 13 -23 -24 -4 -61 21 -42 62 -161 81 -240 8 -28 17 -48 20 -42
3 5 6 -7 6 -28 0 -20 3 -50 7 -67 4 -16 10 -73 13 -125 6 -90 5 -98 -20 -148
-15 -29 -24 -58 -20 -65 4 -7 4 -9 -1 -5 -6 6 -55 -53 -55 -67 0 -2 -13 -27
-30 -55 -16 -27 -26 -50 -22 -50 4 0 2 -4 -4 -8 -18 -12 -45 -72 -38 -84 4 -7
3 -8 -4 -4 -13 8 -65 -87 -54 -99 4 -5 2 -5 -4 -2 -12 7 -51 -59 -46 -76 1 -5
-1 -6 -6 -3 -12 7 -64 -89 -54 -98 4 -4 2 -6 -4 -4 -6 1 -42 -40 -80 -92 -37
-52 -87 -119 -110 -149 -24 -30 -40 -59 -37 -65 3 -6 3 -8 -2 -4 -9 8 -116
-122 -109 -133 2 -4 -1 -11 -7 -15 -8 -5 -10 -2 -4 7 9 17 -37 -34 -68 -76
-12 -16 -21 -32 -19 -35 1 -3 -2 -5 -6 -5 -13 0 -131 -138 -125 -147 2 -5 1
-7 -4 -6 -10 3 -63 -42 -63 -54 0 -5 -20 -27 -45 -50 -24 -23 -41 -46 -38 -52
3 -6 3 -8 -2 -4 -9 8 -95 -74 -88 -85 2 -4 0 -6 -5 -5 -12 4 -83 -67 -76 -76
2 -3 1 -4 -2 -1 -9 6 -210 -185 -206 -197 1 -5 -2 -7 -7 -4 -5 3 -34 -19 -66
-49 -31 -30 -59 -55 -61 -55 -15 0 -174 -147 -170 -157 3 -7 -1 -10 -9 -6 -17
6 -82 -45 -77 -61 2 -6 0 -8 -4 -4 -6 7 -54 -23 -94 -59 -8 -8 -58 -45 -110
-84 -52 -38 -97 -73 -100 -77 -3 -5 -22 -18 -42 -31 -21 -12 -37 -28 -35 -34
1 -7 -4 -11 -11 -9 -7 1 -61 -34 -122 -78 -94 -69 -320 -221 -445 -300 -22
-14 -84 -47 -137 -75 -53 -27 -94 -53 -92 -57 3 -4 -2 -5 -10 -2 -9 3 -16 1
-16 -5 0 -6 -3 -10 -7 -9 -16 5 -72 -25 -66 -35 4 -6 1 -7 -6 -2 -13 8 -93
-23 -87 -34 2 -3 -6 -7 -17 -7 -33 -2 -388 -140 -380 -148 4 -4 0 -4 -8 -1 -8
3 -53 -8 -100 -24 -125 -44 -300 -88 -429 -107 -107 -15 -165 -16 -352 -1 -10
1 -18 4 -18 8 0 4 -12 10 -27 14 -41 9 -103 48 -145 90 -23 23 -42 34 -50 29
-10 -5 -10 -4 -1 6 8 9 8 21 -4 47 -31 76 -5 192 67 299 17 25 27 50 24 56 -4
6 -3 9 2 6 5 -3 63 52 129 122 66 71 125 128 131 129 14 1 66 56 59 63 -3 2 1
5 9 5 20 0 206 165 199 176 -3 6 -1 7 5 3 16 -10 750 711 988 971 153 168 364
424 358 435 -3 5 -1 7 4 6 14 -4 172 204 165 216 -3 5 -2 7 3 3 5 -3 34 28 64
69 30 41 60 80 65 87 6 7 58 77 116 157 159 218 270 382 441 649 15 24 25 49
21 55 -3 6 -2 8 2 4 5 -5 26 22 47 57 34 57 38 68 26 83 -12 15 -11 16 4 4 14
-11 22 -2 68 82 29 52 52 98 50 102 -1 4 2 10 7 13 17 12 156 286 156 309 0 6
4 12 8 12 4 0 15 20 24 45 10 25 25 50 34 57 14 12 14 11 2 -4 -22 -29 -7 -21
60 33 61 49 169 109 197 109 7 0 11 4 8 9 -4 5 2 7 13 4 14 -3 21 3 30 28 15
44 14 49 -9 49 -11 0 -20 -4 -20 -10 0 -5 -7 -7 -15 -4 -8 4 -23 3 -32 -1 -10
-5 -27 -10 -37 -12 -11 -2 -45 -16 -78 -31 -32 -16 -58 -25 -58 -22 0 4 23 66
50 139 28 72 48 137 44 144 -4 7 -3 9 1 4 10 -8 77 171 70 184 -3 4 -1 9 4 11
4 1 20 44 35 93 61 200 87 291 90 310 2 11 6 27 9 35 3 8 11 35 17 60 7 25 43
117 81 205 56 132 139 347 139 362 0 2 -6 1 -12 -2 -7 -4 -6 -1 3 7 20 17 53
114 45 134 -3 8 -2 12 4 9 8 -5 21 30 34 95 3 14 12 43 19 65 8 22 18 56 21
75 5 27 1 21 -19 -24 -13 -32 -22 -62 -19 -67 3 -5 1 -9 -4 -9 -10 0 -85 -175
-85 -197 0 -7 -3 -13 -7 -13 -9 0 -94 -198 -90 -209 1 -2 -3 -7 -8 -10 -5 -3
-37 -67 -72 -141 -34 -74 -75 -159 -92 -188 -16 -29 -27 -60 -24 -68 3 -8 2
-12 -4 -9 -6 3 -10 0 -10 -7 0 -7 -38 -84 -85 -170 -47 -87 -83 -164 -79 -170
4 -6 3 -8 -4 -4 -17 10 -25 -13 -10 -32 11 -15 11 -15 -2 -5 -13 10 -26 -6
-83 -98 -37 -61 -67 -114 -67 -120 0 -5 -4 -9 -10 -9 -5 0 -10 -7 -10 -15 0
-8 -5 -15 -10 -15 -7 0 -7 20 -3 58 14 103 8 288 -9 298 -5 3 -6 10 -3 15 9
13 -35 170 -46 164 -4 -3 -6 3 -4 14 4 24 -42 124 -54 117 -5 -3 -7 2 -4 13 8
31 -15 34 -31 3 -14 -26 -12 -34 21 -123 19 -52 45 -145 57 -207 13 -70 25
-110 31 -105 5 4 4 1 -2 -7 -6 -8 -13 -73 -16 -145 -2 -71 -7 -137 -10 -145
-4 -8 -8 -27 -11 -42 -2 -14 -10 -37 -17 -50 -13 -25 -126 -182 -171 -237 -15
-19 -24 -39 -21 -45 3 -6 3 -8 -2 -4 -4 4 -30 -21 -57 -55 -58 -72 -70 -92
-60 -101 3 -4 0 -5 -8 -2 -16 6 -85 -73 -85 -97 -1 -6 -6 -11 -13 -10 -6 2
-19 -8 -27 -21 -26 -40 -177 -200 -365 -386 -171 -171 -360 -349 -360 -341 0
3 -13 -8 -30 -24 -16 -15 -28 -33 -27 -38 1 -6 -7 -11 -18 -12 -11 0 -19 -6
-17 -13 1 -6 -1 -11 -5 -10 -16 5 -55 -30 -48 -43 5 -7 4 -10 -2 -6 -11 7 -68
-31 -122 -81 -18 -18 -35 -32 -38 -32 -4 0 -151 -112 -188 -143 -5 -5 -73 -53
-150 -108 -77 -55 -147 -105 -155 -112 -8 -6 -28 -18 -43 -26 -15 -8 -27 -18
-27 -23 0 -4 -4 -8 -9 -8 -6 0 -52 -27 -103 -60 -89 -57 -190 -118 -247 -150
-99 -55 -111 -65 -106 -80 5 -11 3 -12 -5 -4 -11 11 -25 5 -397 -186 -40 -20
-69 -41 -65 -45 4 -5 2 -5 -5 -1 -6 3 -36 -5 -65 -18 -122 -55 -263 -113 -430
-176 -98 -37 -174 -71 -170 -75 4 -5 1 -5 -6 -1 -7 4 -54 -6 -105 -23 -90 -30
-268 -78 -317 -86 -129 -21 -163 -25 -215 -27 -46 -2 -59 -6 -57 -17 2 -11 0
-12 -10 -4 -7 6 -52 13 -100 17 -48 3 -111 11 -140 18 -29 6 -56 11 -60 10 -5
-1 -8 2 -8 8 0 5 -4 10 -9 10 -27 0 -82 52 -112 105 -33 58 -34 65 -36 175 -2
115 8 175 41 254 9 22 14 47 11 55 -3 9 -3 12 1 8 7 -7 64 85 68 111 1 8 7 17
12 20 20 13 63 85 57 95 -3 6 -2 7 4 4 11 -7 139 142 135 158 -2 5 0 7 4 2 10
-10 85 63 77 76 -3 6 -1 7 6 3 14 -9 113 78 102 90 -3 4 -1 5 5 1 5 -3 33 15
61 41 28 26 53 47 54 48 2 0 69 49 149 108 80 60 151 111 158 113 7 3 11 12 8
20 -3 8 -1 11 4 8 14 -9 52 14 44 27 -4 7 -3 8 4 4 6 -3 49 21 97 55 75 54 84
63 73 78 -12 14 -11 14 4 3 15 -12 25 -8 80 34 35 27 65 51 68 54 3 3 20 16
38 29 18 12 29 27 26 33 -4 6 -3 8 3 5 18 -11 321 245 315 267 -2 6 0 8 4 3
10 -10 75 53 67 66 -3 6 -1 7 5 3 15 -9 255 231 246 247 -4 6 -3 9 1 4 11 -10
56 33 48 46 -3 6 -1 7 5 3 6 -3 28 15 49 41 21 26 46 55 56 65 10 11 15 23 12
29 -4 5 -1 8 6 7 6 -2 57 50 112 115 89 105 98 119 86 135 -12 15 -12 16 2 4
15 -11 28 2 104 104 49 65 88 123 88 130 0 7 3 11 7 9 7 -5 230 326 230 342 0
6 4 13 8 15 12 5 93 138 85 138 -5 0 -3 4 3 8 6 4 35 48 64 99 37 66 62 98 87
113 61 36 183 142 176 153 -3 5 -1 7 5 3 6 -3 19 5 30 19 11 14 24 25 29 25
16 0 44 36 36 45 -5 4 -3 5 3 2 6 -4 48 18 93 48 45 30 87 55 92 55 6 0 8 4 5
9 -3 5 0 8 7 8 6 -1 38 7 71 18 58 19 77 37 91 84 7 22 6 23 -36 16 -96 -16
-279 -103 -329 -157 -11 -12 -20 -18 -20 -14 0 4 -36 -22 -80 -59 -45 -37 -83
-65 -86 -62 -3 3 15 47 41 98 25 52 43 100 40 107 -3 7 0 10 5 7 11 -7 40 53
151 308 38 87 67 163 64 168 -4 5 -1 9 5 9 7 0 9 7 6 17 -4 10 -4 14 0 10 9
-9 31 43 120 283 36 96 82 203 101 238 19 34 32 69 29 78 -4 10 -2 13 6 8 8
-5 9 -2 5 10 -4 9 -3 15 2 12 8 -5 43 61 41 78 -1 5 2 12 7 15 17 11 74 161
67 174 -4 7 -3 9 1 4 5 -4 15 7 23 25 25 59 61 158 58 158 -19 0 -252 -390
-259 -435 -1 -5 -7 -14 -14 -20 -7 -5 -13 -16 -15 -24 -2 -7 -13 -25 -26 -39
-12 -14 -20 -32 -17 -39 2 -8 1 -12 -4 -9 -5 4 -24 -20 -41 -51 -18 -32 -66
-111 -106 -176 -41 -66 -71 -123 -68 -128 3 -5 1 -8 -4 -7 -5 2 -44 -45 -86
-104 -42 -60 -78 -108 -79 -108 -2 0 -1 68 1 150 3 83 1 150 -4 150 -5 0 -27
-19 -50 -43 l-41 -42 -6 -135 c-4 -74 -13 -162 -21 -194 -8 -33 -12 -64 -9
-69 3 -6 1 -7 -5 -3 -7 4 -12 1 -12 -8 0 -8 -6 -21 -12 -28 -7 -7 -49 -58 -93
-113 -164 -206 -347 -402 -545 -583 -63 -58 -114 -110 -112 -115 1 -4 -1 -6
-6 -3 -5 3 -28 -12 -52 -34 -23 -21 -46 -40 -50 -42 -4 -2 -27 -20 -51 -40
-53 -46 -208 -163 -314 -238 -43 -30 -86 -63 -96 -72 -11 -10 -19 -16 -19 -13
0 3 -11 -2 -26 -11 -16 -11 -23 -23 -19 -33 5 -12 3 -13 -6 -4 -9 9 -20 6 -50
-14 -21 -14 -36 -30 -32 -36 3 -5 1 -7 -5 -3 -14 9 -84 -33 -75 -47 3 -5 1 -7
-4 -4 -16 10 -268 -141 -267 -159 1 -10 -2 -12 -10 -5 -8 7 -24 2 -51 -14 -22
-14 -52 -30 -67 -36 -16 -6 -26 -15 -23 -19 3 -5 0 -12 -6 -16 -8 -4 -9 -3 -5
4 4 7 5 12 1 12 -10 0 -245 -120 -245 -126 0 -3 5 -2 12 2 6 4 8 3 5 -4 -4 -5
-17 -8 -29 -4 -16 4 -19 2 -13 -8 5 -8 4 -11 -3 -6 -15 9 -252 -96 -245 -108
4 -5 1 -6 -5 -2 -15 9 -273 -95 -265 -107 3 -6 1 -7 -6 -3 -15 10 -211 -55
-204 -67 3 -6 2 -7 -4 -4 -15 9 -94 -14 -86 -26 3 -5 1 -7 -5 -3 -6 3 -30 0
-54 -8 -280 -93 -454 -127 -685 -135 -100 -3 -179 -4 -177 -2 8 8 -97 31 -108
24 -6 -3 -8 -1 -4 5 3 6 -2 13 -11 17 -27 9 -70 50 -78 74 -3 12 -9 19 -13 17
-4 -2 -7 8 -8 22 0 15 -2 59 -3 97 -3 69 13 147 44 221 8 20 12 41 8 48 -3 6
-2 8 2 3 5 -4 28 29 52 74 56 105 158 239 276 364 52 55 95 104 96 110 0 5 9
10 19 10 9 0 16 6 14 13 -1 6 2 11 7 10 4 -2 35 20 67 49 33 29 80 69 106 89
26 20 45 40 42 45 -3 5 -2 8 3 7 15 -4 54 23 47 34 -4 6 -3 8 2 5 13 -8 95 58
86 69 -4 5 -3 6 2 2 10 -8 70 31 62 40 -9 9 25 41 38 36 6 -2 59 35 116 82
133 110 190 166 183 178 -3 5 -1 6 5 2 14 -8 74 43 65 56 -3 6 -2 8 4 5 16
-10 258 247 248 264 -4 5 -1 8 6 7 6 -2 57 50 112 115 89 105 98 119 86 135
-12 15 -12 16 2 4 15 -11 27 2 101 100 47 62 90 123 96 135 7 12 18 27 25 35
17 17 137 195 137 203 0 3 -4 4 -9 0 -5 -3 -12 -1 -16 4 -3 6 3 8 14 6 15 -3
29 11 58 58 21 33 38 65 38 69 0 5 5 12 11 16 11 7 144 227 144 238 0 3 -5 2
-12 -2 -7 -4 -8 -3 -4 5 4 6 11 9 15 7 4 -3 28 36 55 85 26 49 44 89 39 89 -4
0 -3 4 3 8 6 4 35 53 63 110 28 56 55 102 59 102 5 0 18 9 29 20 21 19 183
112 183 105 0 -2 26 5 58 16 31 11 66 22 77 25 11 2 32 6 48 10 17 3 33 17 42
35 9 16 13 29 10 29 -4 0 1 7 9 16 19 19 13 34 -12 29 -116 -24 -179 -38 -187
-43 -11 -7 -17 -9 -41 -11 -8 0 -12 -5 -9 -11 3 -5 0 -7 -9 -4 -8 3 -36 -4
-62 -15 -25 -12 -48 -21 -50 -21 -2 0 -2 13 -1 30 1 16 6 30 11 30 4 0 5 8 2
17 -4 10 -4 14 0 10 10 -10 36 52 27 67 -3 6 -2 7 2 3 5 -4 17 12 26 35 21 51
23 72 7 62 -7 -4 -8 -3 -4 5 4 6 11 9 16 6 11 -7 42 84 33 98 -3 5 -2 7 4 4 5
-3 35 73 67 171 32 97 73 209 92 247 18 39 32 76 29 83 -3 7 -1 11 4 8 12 -8
114 251 107 270 -3 8 -2 13 3 10 11 -7 23 22 15 35 -3 5 0 9 6 9 7 0 10 6 7
14 -3 8 -2 16 2 18 12 4 83 246 76 257 -3 5 -1 11 4 13 8 3 59 228 60 268 0 8
5 43 11 77 9 58 16 257 11 333 -2 25 -5 30 -11 20 -15 -23 -13 -73 3 -64 6 4
4 -1 -5 -12 -10 -12 -18 -41 -20 -79 -2 -33 -6 -62 -9 -65 -3 -3 -15 -54 -28
-115 -12 -60 -31 -139 -41 -175 -75 -262 -100 -361 -94 -372 4 -7 3 -8 -4 -4
-7 4 -12 2 -12 -4 0 -6 -8 -30 -19 -53 -10 -23 -37 -91 -59 -152 -22 -60 -65
-163 -96 -229 -31 -65 -53 -123 -49 -129 3 -5 2 -7 -4 -4 -16 10 -55 -70 -47
-96 3 -12 3 -19 0 -16 -4 4 -31 -39 -61 -95 -121 -229 -124 -233 -126 -178 0
15 -2 45 -4 67 -2 22 -4 49 -5 60 0 31 -22 119 -31 131 -5 6 -7 13 -4 16 14
13 -83 231 -98 221 -6 -3 -7 -1 -3 5 4 6 -11 39 -32 73 -23 36 -42 57 -46 50
-4 -6 -4 -16 0 -23 4 -7 3 -8 -4 -4 -7 4 -12 4 -13 -1 0 -4 -2 -17 -4 -27 -2
-11 9 -38 24 -60 15 -23 31 -49 34 -59 4 -11 12 -15 18 -11 8 4 9 3 5 -4 -4
-7 9 -53 29 -103 20 -50 39 -102 41 -117 7 -42 13 -54 23 -47 5 3 13 1 16 -5
4 -6 1 -9 -7 -8 -15 3 -15 4 -4 -124 13 -156 6 -186 -79 -323 -41 -66 -120
-187 -176 -269 -56 -82 -102 -155 -102 -162 0 -7 -4 -11 -8 -9 -11 7 -121
-144 -113 -157 4 -6 3 -8 -3 -5 -6 4 -36 -25 -68 -64 -50 -61 -55 -72 -43 -87
11 -15 11 -15 -3 -5 -12 10 -18 9 -32 -7 -9 -10 -53 -61 -99 -112 -46 -51 -76
-88 -68 -83 8 5 -11 -15 -42 -44 -32 -29 -55 -58 -51 -64 3 -5 2 -7 -4 -4 -12
7 -104 -88 -95 -98 4 -4 2 -5 -4 -3 -15 4 -85 -67 -76 -77 4 -4 2 -5 -4 -3
-10 3 -141 -109 -216 -185 -21 -21 -38 -35 -38 -31 0 4 -9 -1 -20 -11 -10 -9
-18 -22 -17 -29 1 -6 -4 -10 -12 -8 -18 4 -52 -28 -44 -42 3 -6 3 -8 -2 -4 -9
8 -95 -48 -95 -62 0 -6 -5 -10 -10 -10 -20 0 -150 -102 -144 -112 4 -7 2 -8
-4 -4 -12 7 -92 -41 -92 -55 0 -5 -3 -8 -8 -7 -4 2 -45 -22 -92 -52 -47 -30
-97 -61 -112 -68 -15 -8 -25 -19 -21 -25 3 -6 1 -7 -5 -3 -7 4 -42 -11 -79
-32 -77 -44 -258 -136 -348 -175 -33 -15 -59 -31 -58 -37 2 -5 -3 -7 -10 -4
-18 7 -139 -40 -130 -51 5 -4 3 -5 -3 -2 -13 8 -166 -42 -160 -51 2 -4 -12 -7
-32 -8 -20 0 -38 -6 -40 -12 -2 -7 -7 -10 -12 -7 -5 3 -21 0 -37 -6 -15 -7
-35 -13 -43 -15 -8 -1 -22 -5 -30 -7 -8 -2 -34 -8 -58 -12 -23 -4 -45 -12 -48
-16 -3 -5 -9 -7 -12 -5 -4 2 -37 -2 -72 -9 -84 -18 -211 -19 -253 -1 -18 7
-41 25 -50 39 -18 28 -40 150 -25 141 4 -3 8 4 8 15 0 11 9 43 20 71 11 27 16
50 12 50 -4 0 -2 4 4 8 21 14 84 123 78 134 -4 6 -3 8 3 5 12 -8 95 97 86 107
-4 3 -2 6 3 6 6 0 35 30 65 68 61 73 88 143 66 172 -9 12 -9 13 3 3 11 -10 18
-4 41 35 15 26 47 70 73 98 25 28 42 55 38 58 -4 4 -2 7 3 5 14 -3 281 258
277 272 -1 6 2 7 9 4 26 -17 360 379 343 407 -4 6 -3 8 4 4 12 -7 44 33 36 46
-3 5 -1 7 6 6 6 -2 18 10 28 27 9 16 22 34 28 40 19 17 109 149 97 142 -6 -4
-15 -3 -18 3 -4 6 -3 10 2 9 24 -4 38 9 92 89 98 146 190 299 184 306 -4 3 -1
6 5 6 11 0 134 207 135 228 0 6 4 12 9 12 4 0 8 4 8 8 0 5 20 44 45 88 25 43
44 87 41 97 -2 9 0 15 5 12 4 -3 20 18 35 47 23 44 25 55 14 72 -12 19 -11 19
2 8 13 -11 22 3 68 103 28 64 49 123 46 131 -3 8 -2 12 3 9 8 -4 19 15 26 45
1 3 7 16 13 30 7 14 23 54 36 90 24 63 25 65 56 62 26 -3 32 -1 27 12 -4 9 -3
15 1 13 4 -1 28 21 53 48 43 47 90 147 75 162 -8 8 -96 -46 -103 -63 -3 -8
-11 -14 -18 -14 -10 0 -5 26 16 98 43 141 48 169 35 182 -8 8 -7 11 3 8 16 -4
22 14 56 175 14 65 23 123 20 128 -4 5 -2 9 3 9 8 0 36 140 47 235 3 22 11 92
20 155 31 236 44 610 25 700 -6 25 -12 63 -15 84 -2 21 -8 48 -12 60 -4 12 -7
26 -8 31 -5 51 -19 105 -27 105 -5 0 -6 4 -3 10 8 13 -66 261 -76 254 -5 -3
-6 1 -3 9 3 8 -7 43 -21 78 -14 35 -23 53 -20 39 11 -52 55 -391 57 -434 0
-25 4 -44 7 -42 7 5 4 -615 -4 -622 -3 -3 -5 -26 -5 -52 0 -68 -36 -343 -66
-510 -15 -80 -27 -154 -29 -165 -1 -11 -5 -27 -8 -35 -4 -8 -11 -35 -16 -60
-6 -25 -31 -117 -56 -204 -25 -88 -43 -161 -40 -164 3 -3 1 -10 -4 -16 -5 -6
-35 -80 -65 -165 -114 -315 -285 -691 -313 -691 -13 0 -210 190 -197 190 5 1
-2 10 -15 20 -13 11 -20 20 -15 20 4 0 -2 10 -13 23 -11 12 -51 69 -89 127
-38 58 -73 108 -79 112 -5 4 -10 11 -10 15 -1 20 -49 92 -58 86 -6 -3 -7 -1
-4 4 8 12 -36 96 -45 87 -3 -3 -5 3 -4 13 0 10 -5 17 -12 15 -8 -1 -11 2 -7 8
3 5 -9 38 -28 72 -41 74 -150 290 -153 301 -1 4 -2 12 -3 18 0 5 -6 7 -13 3
-6 -4 -8 -3 -5 4 9 13 -48 134 -58 124 -5 -4 -5 -2 -2 4 10 17 -13 75 -26 67
-5 -3 -7 -1 -4 5 4 5 -3 36 -15 67 -15 41 -25 54 -36 50 -11 -4 -12 -2 -4 8 9
10 5 32 -17 88 -69 180 -171 506 -196 627 -4 17 -10 32 -14 32 -5 0 -6 12 -3
28 5 25 4 26 -14 12 -18 -14 -18 -14 -5 2 16 21 7 66 -17 85 -14 11 -15 12 -1
8 14 -5 12 14 -12 141 -25 128 -49 288 -64 419 -2 22 -7 189 -11 371 -7 356 0
497 38 698 11 61 21 120 22 131 0 11 3 22 6 25 12 10 40 132 34 142 -4 6 -3 8
3 5 13 -8 27 39 17 56 -4 7 -3 9 1 4 5 -4 21 28 37 70 16 43 44 108 64 146 19
37 32 73 28 80 -4 6 -3 9 1 4 5 -4 26 26 48 65 22 40 39 73 37 73 -2 0 9 13
24 29 14 16 24 36 21 43 -2 8 -1 11 5 8 5 -3 17 7 27 22 10 15 20 30 23 33 32
29 80 102 74 112 -4 7 -3 10 1 5 11 -9 46 43 38 56 -3 6 -1 7 5 3 7 -4 19 5
30 22 9 16 53 72 97 123 44 52 78 99 77 104 -2 6 0 7 4 2 10 -9 45 23 38 35
-3 4 -2 7 3 6 5 -2 35 19 66 46 41 35 54 52 47 61 -7 8 -5 12 5 12 8 0 12 -4
9 -9 -3 -4 -1 -8 5 -8 5 0 11 4 13 8 2 4 40 34 86 67 45 32 82 62 82 67 0 4 3
7 8 6 4 -2 52 23 107 54 55 31 117 64 137 74 20 9 35 21 32 26 -3 5 -2 7 3 6
4 -1 23 1 41 5 22 4 31 11 26 18 -4 8 -3 9 4 5 6 -4 22 -1 34 6 13 6 28 13 33
15 73 19 323 111 318 117 -4 4 0 4 8 1 9 -3 52 3 95 14 44 10 122 27 174 36
52 9 102 19 110 22 8 3 27 5 43 4 15 -2 27 1 27 6 0 4 35 9 77 11 43 2 82 7
88 11 5 4 29 6 53 5 24 -2 60 0 80 5 30 6 450 5 730 -2z m26202 -3 c61 -5 269
-31 300 -38 14 -3 42 -8 62 -11 21 -2 58 -9 83 -15 25 -6 62 -13 82 -16 20 -3
47 -10 60 -15 13 -5 27 -8 31 -7 8 2 139 -37 194 -57 20 -8 46 -12 57 -10 12
2 19 0 17 -4 -3 -4 43 -27 102 -50 59 -24 147 -63 195 -87 48 -25 93 -42 99
-38 6 4 8 3 5 -3 -6 -9 121 -90 136 -85 4 1 7 -2 7 -6 0 -5 24 -24 53 -43 28
-18 61 -41 72 -50 94 -79 133 -114 218 -197 53 -52 97 -98 97 -102 0 -3 21
-28 46 -54 25 -27 41 -45 35 -42 -6 4 12 -26 40 -66 28 -40 55 -72 60 -70 6 1
8 -1 5 -6 -5 -9 63 -98 73 -95 4 1 8 -3 8 -10 0 -7 26 -50 57 -97 71 -107 174
-315 217 -443 25 -70 38 -96 48 -92 11 4 11 3 2 -9 -7 -8 -10 -19 -7 -24 13
-21 66 -285 80 -400 19 -145 22 -654 6 -847 -19 -226 -76 -577 -119 -744 -6
-20 -12 -47 -15 -61 -2 -14 -18 -74 -35 -135 -17 -60 -33 -120 -35 -132 -3
-12 -10 -31 -16 -43 -6 -12 -9 -24 -6 -27 3 -4 1 -12 -4 -18 -6 -7 -19 -38
-30 -70 -15 -44 -17 -61 -9 -72 9 -11 8 -12 -5 -7 -15 6 -17 3 -20 -38 -1 -7
-7 -19 -13 -26 -7 -7 -13 -18 -13 -23 0 -6 6 -7 13 -4 6 4 4 0 -7 -9 -10 -8
-19 -28 -20 -45 0 -16 -3 -28 -7 -25 -10 6 -120 -266 -113 -278 4 -6 3 -8 -4
-4 -13 8 -26 -29 -16 -46 4 -7 3 -9 -1 -5 -5 4 -46 -67 -92 -159 -71 -141 -82
-169 -71 -183 11 -14 11 -14 -3 -4 -13 11 -20 2 -51 -55 -20 -37 -66 -116
-102 -176 -36 -60 -66 -111 -66 -113 0 -1 -40 -59 -89 -128 -79 -112 -251
-316 -251 -299 0 4 -9 -1 -19 -10 -11 -10 -23 -16 -28 -13 -4 3 -30 50 -57
106 -27 55 -54 97 -59 94 -6 -3 -7 -1 -3 5 3 6 -10 46 -31 89 -20 43 -37 80
-37 83 -3 14 -51 126 -55 130 -3 3 -7 12 -9 20 -6 39 -79 219 -86 213 -4 -4
-4 -1 -1 8 3 8 -8 53 -24 99 -16 47 -34 108 -42 137 -7 29 -16 50 -20 47 -4
-2 -5 6 -1 18 3 14 1 19 -6 14 -8 -4 -10 -2 -6 8 3 8 -4 50 -16 93 -26 94 -23
78 -54 236 -14 70 -28 133 -33 140 -4 6 -6 23 -5 37 2 14 -2 48 -8 75 -6 28
-13 70 -15 95 -2 25 -11 122 -19 215 -32 348 -16 799 39 1120 8 43 12 81 11
83 -7 6 -119 -349 -120 -379 -1 -16 -4 -29 -7 -29 -4 0 -12 -30 -19 -67 -14
-77 -17 -90 -30 -153 -14 -64 -25 -294 -15 -316 4 -11 7 -55 6 -99 -1 -70 5
-136 34 -405 3 -30 17 -120 32 -200 14 -80 28 -160 31 -177 2 -18 7 -31 11
-29 3 2 7 -17 7 -42 1 -25 6 -48 12 -50 6 -2 8 -10 5 -18 -3 -8 -1 -20 4 -27
5 -6 10 -25 12 -42 2 -16 6 -32 10 -35 3 -3 6 -13 7 -22 2 -51 5 -59 16 -52 7
4 8 3 4 -4 -4 -7 5 -55 20 -107 24 -81 30 -93 42 -82 13 11 13 9 1 -10 -16
-26 -34 -30 -42 -9 -5 14 -107 80 -107 70 0 -35 39 -124 67 -154 19 -19 42
-48 51 -63 14 -23 23 -28 45 -24 18 2 31 -1 34 -10 3 -7 9 -10 14 -7 5 3 6 -1
3 -9 -6 -18 85 -257 98 -257 5 0 6 5 2 12 -4 6 -3 8 4 4 6 -3 9 -16 6 -29 -5
-28 15 -79 29 -70 6 4 7 1 2 -7 -10 -16 195 -431 209 -423 6 3 8 3 4 -2 -9
-10 5 -37 105 -205 118 -200 323 -507 360 -541 17 -16 33 -34 33 -39 1 -6 2
-13 3 -18 1 -9 73 -106 95 -128 9 -8 21 -25 28 -37 19 -36 160 -217 169 -217
5 0 9 -6 9 -13 0 -19 45 -59 55 -50 4 5 5 3 1 -4 -3 -7 13 -27 40 -50 26 -21
70 -60 98 -88 71 -69 103 -95 111 -87 4 4 5 2 3 -4 -1 -6 38 -55 89 -110 50
-54 103 -112 116 -129 28 -34 67 -108 67 -126 0 -6 8 -18 18 -26 9 -8 11 -11
3 -7 -27 13 1 -40 53 -101 28 -34 59 -72 68 -86 67 -92 96 -128 102 -124 3 3
4 2 1 -2 -3 -3 9 -31 27 -61 17 -30 39 -75 49 -101 10 -25 23 -45 30 -43 10 2
9 0 0 -12 -16 -19 -7 -51 11 -40 10 6 10 4 2 -7 -6 -8 -14 -33 -17 -57 -11
-85 -64 -124 -168 -124 -44 0 -127 8 -169 17 -43 9 -132 32 -198 52 -46 13
-90 22 -98 19 -9 -3 -12 -1 -9 4 3 6 -2 11 -12 12 -29 2 -36 4 -77 22 -21 10
-45 15 -53 12 -9 -4 -11 -2 -7 6 5 7 0 9 -14 6 -12 -4 -20 -2 -16 3 3 5 -3 9
-13 9 -11 0 -23 4 -28 9 -6 4 -50 24 -100 44 -49 19 -129 53 -177 76 -49 22
-88 37 -88 33 0 -4 -4 -2 -8 3 -10 15 -254 148 -270 148 -6 0 -10 2 -7 5 5 5
-132 92 -150 95 -5 1 -14 7 -20 13 -5 6 -53 41 -105 77 -52 36 -122 86 -155
110 -33 25 -64 43 -70 40 -5 -4 -7 -3 -3 1 9 11 -204 187 -219 181 -7 -2 -15
1 -19 7 -4 7 -3 8 4 4 7 -4 12 -2 12 3 0 6 -3 11 -7 11 -5 0 -36 27 -71 60
-35 33 -68 57 -74 54 -6 -4 -8 -3 -5 3 7 11 -186 205 -197 198 -3 -3 -4 -2 -1
2 8 10 -26 43 -38 36 -5 -3 -7 -2 -4 4 7 12 -110 143 -126 140 -6 -1 -11 7
-12 18 0 11 -6 19 -13 17 -6 -1 -11 4 -10 10 2 7 -3 12 -10 10 -8 -1 -11 2 -8
6 3 5 -4 20 -17 34 -12 13 -62 74 -111 136 -49 62 -93 112 -98 112 -4 0 -7 3
-6 8 4 10 -93 142 -104 142 -4 0 -8 4 -8 9 0 4 -57 93 -126 197 -114 170 -153
226 -129 185 5 -10 4 -12 -4 -7 -6 4 -8 12 -5 18 4 6 3 13 -2 17 -5 3 -21 29
-36 56 -15 28 -31 49 -35 48 -4 -1 -8 22 -9 50 0 29 -2 61 -4 72 -5 38 21 214
45 299 12 47 21 86 18 86 -2 0 3 7 11 16 9 8 16 21 16 27 0 7 23 52 50 101 28
49 50 96 50 105 -1 24 -28 57 -39 45 -27 -26 -111 -181 -107 -197 2 -9 0 -15
-4 -12 -16 10 -87 -215 -75 -235 3 -5 1 -11 -4 -14 -5 -3 -8 -20 -7 -37 1 -16
-2 -33 -7 -36 -4 -3 -7 -27 -6 -54 2 -27 -1 -49 -7 -50 -5 -1 -36 48 -70 110
-33 61 -65 107 -69 103 -5 -4 -5 -2 -2 4 8 14 -38 126 -48 116 -5 -4 -5 -2 -1
5 4 7 -15 54 -41 105 -26 51 -64 130 -83 176 -20 45 -40 79 -45 75 -4 -5 -5
-3 -2 3 4 7 -5 43 -18 80 -32 87 -33 88 -31 94 0 3 -6 17 -15 31 -9 14 -25 53
-34 87 -10 34 -22 62 -27 62 -5 0 -7 4 -4 9 7 11 -35 175 -46 179 -5 2 -6 7
-3 12 4 7 -5 44 -22 90 -4 8 -7 20 -7 25 -5 44 -31 145 -38 145 -4 0 -5 7 -1
15 3 9 -3 25 -13 37 -11 12 -13 18 -6 14 15 -9 15 -6 -2 74 -15 73 -31 189
-28 207 2 6 -2 15 -8 18 -8 5 -11 -38 -9 -148 3 -190 7 -229 23 -220 8 5 7 2
-1 -8 -9 -11 -7 -42 12 -139 38 -201 35 -192 54 -178 14 11 14 11 3 -3 -10
-13 -10 -28 -2 -64 6 -27 14 -53 17 -59 4 -6 8 -17 8 -26 2 -21 37 -124 44
-130 3 -3 6 -11 7 -17 3 -40 5 -44 16 -37 7 4 8 3 4 -5 -8 -13 23 -111 36
-111 4 0 4 -7 1 -17 -4 -9 -2 -14 3 -11 5 4 10 -5 11 -19 0 -14 6 -29 13 -33
6 -4 11 -10 11 -14 -3 -16 12 -55 19 -51 4 3 8 -1 7 -8 -1 -34 4 -48 15 -41 6
4 8 3 5 -3 -8 -13 36 -117 45 -108 3 4 9 1 14 -6 4 -8 3 -10 -4 -5 -15 9 -15
3 -1 -28 7 -14 16 -23 22 -19 6 3 7 2 4 -4 -6 -10 30 -144 42 -153 3 -3 8 -16
9 -29 4 -26 75 -236 97 -286 7 -16 30 -73 51 -125 20 -52 42 -98 48 -102 24
-17 -20 -7 -82 18 -35 14 -70 23 -78 20 -8 -3 -13 -2 -10 3 6 10 -47 26 -151
45 -65 12 -91 8 -63 -9 6 -4 8 -10 5 -15 -3 -5 0 -22 8 -36 12 -23 30 -32 113
-55 54 -16 100 -28 102 -29 2 0 0 6 -4 13 -4 6 -5 10 -1 7 3 -3 5 -9 6 -13 0
-5 28 -22 61 -38 34 -16 88 -47 119 -69 53 -37 62 -50 116 -160 32 -65 63
-116 68 -113 6 3 7 1 3 -5 -9 -15 18 -55 29 -44 5 4 5 2 1 -5 -8 -14 14 -64
25 -58 4 3 11 0 15 -6 4 -8 3 -9 -4 -5 -16 10 -15 0 4 -29 9 -14 20 -22 25
-19 5 3 6 -2 3 -11 -4 -8 -1 -21 5 -29 6 -7 23 -35 37 -61 29 -56 192 -313
251 -397 22 -32 44 -54 48 -50 5 4 5 2 2 -4 -4 -6 15 -40 41 -75 26 -35 58
-81 72 -101 13 -20 28 -34 32 -32 5 3 7 1 6 -4 -8 -29 420 -532 445 -524 5 1
6 -1 3 -6 -8 -13 101 -115 115 -106 7 4 10 3 5 -4 -6 -10 140 -151 195 -190
13 -9 31 -23 39 -31 38 -38 249 -201 259 -201 6 0 11 -4 11 -8 0 -15 140 -123
150 -117 6 4 9 3 8 -2 -2 -5 9 -22 25 -38 15 -16 27 -27 27 -25 0 3 37 -29 82
-71 45 -43 87 -75 93 -72 5 4 7 2 2 -2 -10 -12 23 -46 37 -38 6 3 8 2 3 -2
-10 -11 53 -76 66 -68 6 4 7 1 2 -7 -4 -7 -3 -15 2 -19 5 -3 38 -42 72 -86 65
-82 79 -98 68 -79 -3 6 0 11 8 11 10 0 12 -4 5 -12 -7 -9 4 -35 36 -88 25 -41
61 -112 79 -156 17 -44 35 -78 38 -75 3 3 8 0 13 -7 4 -7 3 -10 -4 -5 -9 6 -8
-137 2 -211 2 -12 0 -20 -5 -18 -4 3 -10 -8 -14 -24 -7 -32 -69 -94 -104 -106
-12 -3 -19 -11 -16 -16 3 -5 0 -6 -8 -3 -7 2 -34 0 -59 -5 -69 -16 -381 -13
-408 4 -9 6 -11 4 -5 -6 7 -11 6 -12 -6 -3 -19 15 -167 47 -185 40 -8 -3 -13
-2 -10 3 7 11 -160 55 -180 47 -8 -3 -13 -2 -10 3 5 7 -294 114 -349 126 -5 1
-21 7 -35 13 -63 28 -317 125 -332 127 -9 0 -23 6 -30 13 -8 6 -41 23 -74 38
-32 14 -79 35 -104 46 -70 31 -324 159 -337 170 -7 5 -18 6 -25 2 -7 -4 -10
-4 -6 1 5 4 -38 34 -95 65 -56 31 -144 83 -195 114 -51 31 -98 53 -104 50 -6
-4 -8 -2 -5 4 4 6 -26 31 -71 59 -93 57 -226 151 -359 251 -81 61 -98 70 -112
60 -14 -11 -14 -11 -3 4 11 14 8 20 -24 42 -21 14 -41 23 -46 20 -5 -3 -7 0
-6 8 2 7 -3 12 -10 10 -8 -1 -11 2 -8 6 7 12 -28 44 -45 40 -7 -2 -13 3 -14
10 0 18 -56 62 -68 55 -6 -3 -7 -2 -4 4 3 5 -31 43 -76 83 -89 79 -352 334
-333 323 6 -3 0 6 -13 20 -13 15 -28 24 -33 21 -5 -3 -7 -2 -6 3 3 9 -10 26
-53 73 -14 15 -33 40 -42 54 -10 14 -22 25 -28 23 -6 -1 -13 6 -14 15 -3 14
-93 131 -114 148 -37 29 -76 141 -92 264 -7 52 -15 93 -19 91 -3 -2 -6 5 -6
15 0 10 3 17 7 14 3 -2 7 20 8 50 1 45 -3 56 -25 77 -14 13 -29 24 -32 24 -4
0 -6 3 -5 7 1 3 -4 11 -12 18 -21 18 -29 -44 -21 -176 4 -63 5 -114 2 -114 -3
0 -24 27 -47 60 -23 33 -46 60 -52 60 -6 0 -8 3 -4 6 3 4 -27 56 -68 117 -41
60 -75 114 -75 119 0 5 -4 7 -8 4 -5 -3 -9 1 -9 8 0 27 -182 318 -194 311 -5
-4 -6 0 -3 8 3 8 -9 38 -26 67 -17 30 -50 90 -72 134 -22 45 -45 84 -50 87 -5
3 -9 10 -9 15 1 13 -59 94 -70 94 -5 0 -8 3 -7 8 2 4 -5 18 -15 32 -18 26 -23
21 -8 -8 5 -9 37 -88 72 -175 48 -123 65 -157 77 -152 12 4 12 2 4 -8 -7 -8
-8 -17 -4 -21 4 -4 7 -11 7 -16 0 -21 90 -188 98 -183 6 3 7 1 3 -5 -4 -6 0
-24 8 -39 7 -15 33 -80 57 -143 23 -63 45 -117 48 -120 3 -3 6 -9 7 -15 1 -27
17 -64 25 -59 5 3 6 -3 2 -12 -5 -13 -3 -15 7 -9 9 5 11 4 6 -3 -9 -14 44
-153 56 -146 4 3 6 -1 3 -8 -6 -14 49 -151 57 -143 2 3 5 -1 5 -8 0 -27 36
-106 46 -100 6 3 7 1 3 -5 -7 -12 80 -204 95 -210 5 -2 7 -8 4 -13 -8 -12 24
-71 35 -64 6 3 7 -1 4 -9 -3 -8 0 -24 6 -36 10 -18 14 -19 28 -8 15 12 16 11
3 -5 -11 -14 -12 -23 -2 -44 19 -41 6 -39 -52 11 -30 25 -56 45 -58 43 -2 -1
-3 0 -2 2 10 18 -258 178 -277 166 -6 -4 -10 -2 -10 2 0 5 -26 16 -58 26 -57
17 -92 21 -92 12 0 -15 44 -85 54 -85 6 0 37 -11 68 -24 42 -17 60 -20 68 -12
8 8 10 7 5 -4 -3 -10 7 -22 32 -35 20 -11 38 -19 40 -17 2 1 17 -11 35 -28 29
-28 41 -34 61 -31 4 0 6 -3 5 -7 -2 -5 22 -32 53 -60 54 -50 78 -65 63 -40 -4
7 -3 8 5 4 6 -4 9 -11 6 -16 -6 -10 71 -79 145 -128 30 -20 56 -43 58 -50 4
-22 34 -62 41 -57 4 2 7 -6 7 -18 -1 -13 4 -21 12 -19 8 1 11 -2 7 -8 -10 -16
216 -387 258 -423 12 -10 16 -15 8 -11 -8 4 8 -24 35 -62 121 -171 162 -223
169 -216 5 4 6 2 2 -3 -14 -26 451 -573 476 -559 7 4 9 3 4 -1 -11 -13 33 -54
52 -48 12 4 13 2 3 -4 -10 -8 -10 -12 2 -22 10 -8 16 -8 19 -1 3 6 4 5 3 -2
-5 -20 34 -57 53 -51 12 4 13 2 3 -4 -10 -8 -10 -12 2 -22 10 -8 16 -8 19 -1
3 6 4 5 3 -2 -4 -16 32 -57 48 -54 6 2 7 1 3 -2 -15 -7 24 -41 41 -35 12 3 13
2 4 -4 -9 -7 12 -30 74 -86 47 -42 91 -75 97 -74 6 1 11 -4 12 -10 0 -7 23
-31 50 -54 28 -22 70 -57 94 -77 24 -20 66 -54 95 -75 28 -21 62 -47 76 -58
81 -67 214 -158 223 -152 6 3 8 2 5 -3 -3 -5 56 -53 132 -108 77 -54 200 -147
275 -207 75 -60 140 -107 145 -104 5 3 12 0 16 -6 4 -8 3 -9 -4 -5 -7 4 -12 5
-12 1 0 -10 192 -190 204 -190 6 0 11 -9 11 -20 0 -13 6 -19 15 -17 8 2 12 0
8 -3 -6 -6 70 -116 92 -135 27 -23 136 -279 147 -345 8 -49 9 -225 1 -225 -4
0 -8 -6 -8 -14 0 -7 -11 -34 -24 -59 -14 -25 -21 -49 -18 -54 4 -4 3 -5 -2 0
-12 9 -47 -23 -39 -36 3 -5 1 -7 -4 -4 -6 4 -35 -4 -64 -17 -30 -13 -73 -27
-97 -31 -26 -4 -40 -11 -35 -17 3 -7 1 -8 -6 -4 -6 4 -71 9 -144 11 -155 5
-279 23 -447 65 -136 34 -374 114 -554 186 -15 6 -17 4 -11 -6 5 -9 4 -11 -4
-6 -6 4 -9 11 -6 15 4 8 -76 39 -84 33 -2 -2 -7 0 -10 5 -11 17 -160 75 -176
70 -8 -4 -14 -1 -12 6 1 7 -6 11 -15 11 -10 -1 -16 2 -13 6 7 11 -31 23 -44
15 -6 -3 -13 1 -18 8 -12 20 -152 89 -165 81 -6 -4 -8 -3 -5 3 7 10 -189 110
-207 105 -6 -2 -8 0 -3 4 8 9 -144 95 -155 88 -5 -3 -8 -1 -8 4 0 5 -62 46
-137 92 -76 45 -199 123 -273 173 -73 50 -140 90 -147 90 -7 0 -11 3 -8 5 3 3
-14 19 -38 36 -23 16 -94 69 -157 116 -63 47 -122 85 -130 85 -8 0 -15 5 -15
12 0 14 -136 123 -146 117 -4 -2 -11 1 -15 7 -5 8 -3 9 7 4 12 -8 12 -6 0 8
-8 10 -16 15 -19 12 -3 -3 -12 4 -19 15 -8 11 -19 18 -24 14 -5 -3 -8 -1 -7 4
4 13 -198 183 -207 174 -3 -4 -5 -2 -3 4 1 6 -41 53 -94 103 -54 51 -98 90
-98 87 0 -3 -16 12 -36 34 -20 22 -41 37 -48 33 -6 -3 -8 -2 -3 2 10 12 -63
86 -77 78 -6 -3 -8 -2 -3 2 9 11 -53 76 -65 69 -5 -3 -8 0 -6 8 4 18 -192 229
-205 221 -6 -3 -7 -1 -4 4 4 6 -5 23 -19 39 -14 16 -33 39 -41 52 -9 13 -22
21 -29 18 -7 -3 -16 0 -20 6 -4 7 -3 8 4 4 18 -11 14 3 -9 35 -11 16 -25 27
-30 23 -5 -3 -8 -2 -7 3 4 15 -23 54 -34 47 -6 -4 -8 -3 -5 3 3 5 -15 36 -41
69 -26 32 -88 113 -136 179 -49 66 -93 119 -98 117 -5 -1 -7 2 -4 6 6 11 -15
122 -24 122 -14 0 -10 280 5 365 16 91 56 226 82 279 13 26 13 33 -3 68 l-18
40 -27 -54 c-38 -76 -72 -177 -65 -194 3 -8 2 -13 -3 -9 -5 3 -14 -18 -20 -45
-14 -63 -14 -63 2 -54 6 4 4 -2 -6 -13 -10 -11 -17 -33 -16 -49 1 -16 -1 -47
-5 -69 -4 -22 -2 -82 4 -134 6 -52 9 -95 7 -97 -2 -3 -32 41 -66 96 -36 57
-68 97 -74 93 -6 -3 -7 -1 -3 5 4 6 -31 79 -78 162 -46 83 -86 148 -88 143 -3
-4 -3 -2 -1 5 5 23 -51 122 -66 117 -11 -4 -11 -2 -2 8 9 11 -11 60 -92 228
-115 237 -119 246 -203 441 -32 75 -62 134 -68 131 -5 -3 -6 -1 -2 5 6 10 -38
137 -55 156 -5 5 4 -38 20 -95 53 -193 74 -258 82 -254 4 3 11 0 15 -6 4 -8 3
-9 -4 -5 -7 4 -12 3 -12 -2 0 -10 73 -212 89 -247 5 -11 17 -41 26 -67 13 -35
21 -45 34 -41 13 4 13 3 2 -5 -13 -9 -13 -13 0 -28 8 -9 13 -20 12 -23 -5 -11
8 -41 15 -37 4 2 8 -6 9 -17 0 -12 11 -44 24 -72 13 -27 24 -61 26 -75 5 -37
74 -282 85 -303 5 -10 12 -30 14 -45 13 -68 153 -464 205 -579 11 -25 19 -46
17 -48 -2 -2 -30 9 -63 26 -58 28 -191 67 -200 57 -2 -2 0 -20 6 -39 10 -31
18 -37 78 -58 36 -12 82 -33 101 -44 19 -12 39 -21 43 -19 5 1 6 -2 2 -7 -5
-9 31 -36 45 -34 3 1 4 -3 3 -7 -1 -4 4 -14 12 -20 8 -7 15 -9 15 -6 0 4 7 0
16 -9 9 -9 23 -14 30 -11 7 3 16 0 20 -6 4 -6 3 -8 -4 -4 -27 16 -17 -20 39
-135 99 -205 202 -388 213 -382 6 3 8 3 4 -2 -4 -4 2 -26 14 -48 80 -158 437
-699 456 -692 7 3 10 0 7 -5 -9 -15 34 -82 47 -74 6 4 8 2 5 -3 -10 -15 304
-443 324 -443 6 0 8 -3 5 -8 -2 -4 51 -77 118 -162 92 -117 127 -154 142 -152
14 2 15 0 6 -6 -16 -11 36 -76 240 -300 80 -88 134 -140 141 -136 7 4 9 3 4
-1 -10 -11 43 -66 56 -58 6 3 7 1 3 -5 -10 -17 233 -264 253 -257 8 3 12 3 8
-1 -10 -11 44 -65 57 -57 6 3 8 2 3 -2 -10 -12 63 -86 77 -78 6 3 8 2 3 -2
-10 -11 63 -86 76 -78 6 3 7 2 4 -4 -7 -11 290 -299 305 -295 5 1 7 -2 3 -8
-3 -5 -2 -10 2 -10 5 0 26 -17 48 -38 22 -21 89 -80 150 -132 249 -215 388
-385 419 -515 10 -39 13 -135 5 -135 -4 0 -10 -11 -13 -25 -4 -14 -26 -45 -49
-68 -23 -23 -41 -45 -40 -49 2 -4 -3 -5 -11 -2 -8 3 -17 0 -22 -7 -4 -7 -3
-10 4 -5 6 3 13 2 17 -3 3 -6 -3 -8 -13 -6 -27 5 -144 -39 -135 -50 5 -6 4 -7
-1 -3 -5 4 -59 4 -120 1 -134 -7 -272 12 -461 61 -71 19 -133 32 -137 30 -4
-3 -8 -1 -8 4 0 12 -78 34 -92 26 -7 -5 -8 -3 -3 6 6 10 3 12 -13 8 -12 -4
-20 -3 -17 1 8 14 -62 30 -75 17 -9 -8 -11 -7 -8 3 2 9 -12 20 -37 29 -62 23
-306 119 -347 136 -21 9 -41 17 -45 19 -4 1 -57 28 -118 60 -60 31 -116 55
-122 52 -7 -2 -12 -1 -10 3 1 4 -2 8 -7 9 -5 1 -12 6 -15 11 -9 13 -91 64
-108 66 -8 1 -18 7 -21 12 -8 11 -209 144 -218 144 -4 0 -16 9 -28 20 -54 49
-259 190 -268 184 -6 -4 -8 -2 -5 3 4 6 -27 36 -68 67 -41 31 -75 54 -75 52 0
-3 -11 5 -24 17 -13 12 -30 27 -38 32 -7 6 -43 34 -80 63 -38 29 -68 50 -68
48 0 -2 -21 16 -47 40 -26 23 -49 42 -50 40 -2 -1 -29 22 -60 51 -32 29 -64
51 -71 48 -7 -3 -11 -1 -7 4 7 12 -101 104 -114 97 -5 -4 -13 -1 -17 5 -4 8
-3 9 4 5 7 -4 12 -4 12 0 0 8 -137 135 -145 134 -3 0 -17 13 -31 30 -14 17
-31 27 -37 23 -7 -3 -9 -2 -4 2 9 11 -244 266 -256 258 -6 -3 -7 -1 -4 4 8 13
-110 143 -126 140 -6 -1 -11 7 -12 18 0 11 -6 19 -13 17 -6 -1 -11 4 -10 10 2
7 -3 12 -10 10 -6 -1 -11 2 -10 7 4 10 -63 93 -117 145 -22 22 -33 35 -25 31
12 -7 -57 84 -80 105 -3 3 -26 33 -51 67 -25 35 -50 59 -54 55 -5 -4 -5 -2 -2
4 3 6 -2 20 -12 30 -10 11 -54 72 -98 136 -44 65 -84 114 -88 110 -5 -4 -5 -2
-2 4 7 12 -78 154 -100 167 -7 5 -11 12 -8 17 5 8 -114 229 -135 250 -3 3 -6
10 -7 17 -5 23 -60 102 -67 95 -4 -4 -7 -2 -6 3 5 23 -1 46 -9 40 -5 -3 -13 0
-17 6 -4 8 -3 9 4 5 8 -5 12 1 12 14 0 12 -4 19 -8 16 -4 -3 -2 48 5 112 8 64
12 125 9 135 -2 9 -1 15 3 13 10 -7 54 172 45 185 -5 8 -3 9 6 4 10 -6 12 -4
7 8 -4 10 -2 17 4 17 6 0 9 9 6 20 -3 11 -2 18 2 15 8 -4 38 74 33 88 -1 4 3
7 9 7 5 0 8 4 5 9 -4 5 -1 11 6 13 9 3 9 12 -1 36 -8 18 -17 35 -22 38 -15 9
-98 -182 -113 -259 -2 -12 -11 -47 -19 -77 -8 -30 -20 -97 -27 -148 -12 -86
-14 -91 -30 -77 -9 8 -17 21 -17 28 0 22 -221 455 -229 449 -4 -4 -4 -2 -1 4
7 13 -29 105 -45 115 -5 3 -9 9 -9 13 4 25 0 36 -11 30 -7 -4 -8 -3 -4 4 4 6
-2 33 -13 59 -42 105 -104 286 -116 341 -3 17 -11 32 -16 32 -6 0 -8 4 -5 9 3
4 -8 55 -25 112 -17 57 -35 121 -40 143 -5 21 -30 110 -54 198 -78 274 -132
480 -150 563 -9 44 -19 87 -22 95 -3 8 -7 31 -9 50 -3 19 -8 51 -13 70 -18 76
3 -232 32 -475 11 -90 31 -184 38 -179 5 3 6 -2 3 -11 -8 -19 47 -235 59 -235
4 0 5 -4 2 -10 -7 -11 76 -271 85 -265 3 2 6 -9 6 -24 1 -15 15 -66 32 -112
17 -46 47 -134 68 -196 21 -61 43 -109 48 -106 5 4 6 1 3 -4 -8 -12 22 -105
31 -99 4 2 7 -8 8 -22 1 -15 10 -47 21 -72 49 -110 163 -394 159 -397 -2 -3
-26 3 -53 12 -26 9 -70 21 -98 26 -67 13 -263 13 -279 0 -7 -6 -16 -8 -19 -5
-9 10 -98 -6 -92 -16 3 -5 0 -12 -6 -16 -8 -4 -9 -3 -5 4 4 7 1 12 -9 12 -24
0 -165 -60 -165 -71 0 -5 -7 -9 -15 -9 -29 0 -161 -142 -209 -225 -46 -79
-106 -220 -106 -250 0 -30 -17 -14 -30 28 -15 47 -16 53 -18 85 -1 13 -6 20
-12 17 -6 -3 -7 1 -4 10 6 14 -16 119 -33 165 -4 8 -5 18 -5 23 1 4 -9 56 -22
115 -13 59 -29 139 -36 179 -7 40 -17 70 -21 67 -5 -3 -6 1 -4 8 3 8 -10 101
-30 208 -20 107 -38 211 -41 230 -2 19 -9 69 -15 110 -6 41 -13 82 -16 90 -3
8 -6 31 -8 50 -5 47 -12 112 -31 255 -8 66 -17 140 -19 165 -10 137 -17 217
-21 230 -3 8 -7 51 -9 95 -2 44 -6 116 -9 160 -9 142 -11 836 -3 990 5 83 10
179 12 215 2 36 7 73 10 82 4 10 5 36 3 58 -2 22 0 40 4 40 5 0 8 15 8 33 0
19 10 103 21 188 12 85 22 173 23 196 0 22 3 39 6 37 2 -3 12 41 22 97 9 55
20 115 23 131 6 24 4 29 -6 23 -9 -6 -9 -2 2 11 17 21 53 176 53 236 1 20 4
34 8 32 7 -5 21 55 17 71 -2 6 3 21 10 34 7 13 14 41 15 61 0 21 3 37 6 35 9
-6 62 224 54 236 -4 7 -3 9 3 6 10 -7 76 219 68 233 -3 5 -1 10 4 12 7 2 93
268 106 328 2 8 22 67 45 130 23 63 40 115 40 115 -1 0 3 11 8 25 6 14 29 77
52 140 23 63 57 154 76 203 38 98 39 101 22 91 -7 -4 -11 -5 -8 -1 3 3 10 6
15 8 6 1 41 79 78 173 38 94 78 190 89 214 17 36 18 45 7 60 -12 15 -12 16 2
5 13 -11 18 -5 37 39 12 28 19 56 15 62 -3 6 -3 8 2 4 4 -4 23 24 41 63 38 79
39 83 22 74 -7 -4 -6 -1 3 7 8 7 75 134 149 281 73 147 137 270 142 273 4 3 6
10 3 15 -4 5 -2 9 3 9 13 0 33 50 26 62 -4 7 -2 8 4 4 7 -4 19 9 32 34 11 22
18 40 16 40 -3 0 6 12 19 26 14 15 25 33 25 40 0 8 5 14 10 14 12 0 56 71 52
82 -1 5 4 7 11 5 7 -1 12 7 11 19 0 14 4 20 13 17 7 -3 13 -1 13 4 0 6 20 41
45 79 25 37 45 73 45 79 0 6 6 17 12 23 7 7 29 41 48 76 53 96 109 184 158
248 25 33 40 63 36 69 -4 8 -3 9 4 5 11 -7 36 27 26 37 -3 3 0 8 7 13 8 4 10
3 5 -4 -19 -30 6 -6 55 56 96 120 323 376 463 521 44 47 79 85 76 85 -2 1 50
53 115 116 66 63 120 119 120 125 0 5 5 10 11 10 6 0 58 44 114 98 57 53 105
97 107 97 3 0 147 122 163 138 3 3 -2 2 -10 -3 -9 -5 -12 -5 -7 1 5 5 12 8 15
7 4 -1 25 13 47 31 22 18 90 72 152 118 62 47 109 89 105 93 -4 3 -2 5 4 3 13
-4 144 83 139 92 -2 4 2 7 9 7 14 0 109 62 114 75 2 4 8 8 14 8 6 0 60 31 122
69 127 78 284 167 368 207 32 16 54 32 51 38 -3 6 -3 8 1 4 8 -6 49 11 246
105 97 46 420 176 542 217 37 13 64 28 61 33 -3 6 -1 7 5 3 16 -10 103 14 95
27 -3 6 -1 7 5 3 16 -10 63 4 55 17 -3 5 -1 7 4 4 16 -10 74 4 66 16 -3 5 -2
7 4 4 6 -4 88 14 184 38 186 48 418 97 555 117 46 7 84 15 84 19 0 4 8 5 18 3
9 -3 44 0 77 5 33 6 101 13 150 17 50 3 140 10 200 14 97 7 542 3 665 -6z
m955 -163 c3 -5 2 -12 -3 -15 -5 -3 -9 1 -9 9 0 17 3 19 12 6z m-3370 -161 c3
-6 -1 -7 -9 -4 -18 7 -21 14 -7 14 6 0 13 -4 16 -10z m-26305 -223 c0 -2 -10
-12 -22 -23 l-23 -19 19 23 c18 21 26 27 26 19z m4684 -16 c3 -5 -2 -15 -12
-22 -15 -12 -16 -12 -5 2 7 9 10 19 6 22 -3 4 -4 7 0 7 3 0 8 -4 11 -9z
m20800 -162 c-3 -5 -10 -7 -15 -3 -5 3 -7 10 -3 15 3 5 10 7 15 3 5 -3 7 -10
3 -15z m-20370 -37 c3 -5 -1 -9 -9 -9 -8 0 -12 4 -9 9 3 4 7 8 9 8 2 0 6 -4 9
-8z m-5719 -702 c3 -6 -1 -7 -9 -4 -18 7 -21 14 -7 14 6 0 13 -4 16 -10z m-94
-157 c13 -16 12 -17 -3 -4 -17 13 -22 21 -14 21 2 0 10 -8 17 -17z m6885 -19
c1 -9 0 -13 -4 -10 -3 4 -7 14 -8 22 -1 9 0 13 4 10 3 -4 7 -14 8 -22z m24968
-2 c3 -5 -1 -9 -9 -9 -8 0 -12 4 -9 9 3 4 7 8 9 8 2 0 6 -4 9 -8z m-7044 -136
c0 -2 -8 -10 -17 -17 -16 -13 -17 -12 -4 4 13 16 21 21 21 13z m-80 -80 c0 -2
-8 -10 -17 -17 -16 -13 -17 -12 -4 4 13 16 21 21 21 13z m7245 -95 c3 -5 2
-12 -3 -15 -5 -3 -9 1 -9 9 0 17 3 19 12 6z m-32110 -220 c3 -5 2 -12 -3 -15
-5 -3 -9 1 -9 9 0 17 3 19 12 6z m24360 -191 c-3 -5 -12 -10 -18 -10 -7 0 -6
4 3 10 19 12 23 12 15 0z m5 -44 c0 -2 -8 -10 -17 -17 -16 -13 -17 -12 -4 4
13 16 21 21 21 13z m-280 -362 c0 -8 -19 -13 -24 -6 -3 5 1 9 9 9 8 0 15 -2
15 -3z m-22206 -392 c3 -5 -1 -9 -9 -9 -8 0 -12 4 -9 9 3 4 7 8 9 8 2 0 6 -4
9 -8z m6427 -35 c-10 -9 -11 -8 -5 6 3 10 9 15 12 12 3 -3 0 -11 -7 -18z
m-10106 -87 c206 -24 493 -82 623 -126 108 -36 367 -158 527 -249 163 -92 427
-267 640 -423 82 -61 152 -109 155 -107 3 1 6 -12 7 -30 1 -19 7 -44 14 -57 7
-13 12 -27 11 -31 -1 -4 8 -36 22 -70 13 -34 34 -91 46 -127 13 -36 31 -83 40
-105 10 -22 30 -71 45 -110 16 -38 43 -101 61 -140 18 -38 44 -97 59 -130 14
-33 34 -71 43 -85 9 -14 17 -27 17 -30 1 -22 29 -68 38 -63 6 3 7 1 3 -5 -9
-15 45 -113 58 -105 5 3 6 1 3 -4 -8 -13 16 -65 52 -113 14 -19 26 -39 26 -45
1 -24 40 -85 51 -81 8 3 11 -1 8 -9 -7 -18 27 -76 39 -68 6 3 7 1 3 -5 -4 -7
24 -57 63 -114 106 -155 200 -265 296 -349 33 -28 61 -55 63 -60 2 -4 -6 -25
-17 -47 -11 -22 -17 -43 -13 -47 4 -5 2 -5 -4 -2 -13 8 -27 -20 -18 -34 3 -5
-2 -12 -11 -15 -20 -8 -48 -61 -39 -76 4 -6 3 -8 -3 -5 -13 8 -86 -111 -77
-125 4 -6 2 -8 -4 -5 -6 4 -20 -11 -32 -35 -12 -24 -32 -58 -46 -77 -13 -18
-21 -38 -17 -44 3 -6 1 -7 -5 -3 -16 10 -15 -6 1 -24 10 -12 9 -12 -5 -2 -18
14 -34 0 -23 -18 4 -6 2 -9 -4 -8 -14 4 -212 -292 -204 -304 3 -6 1 -8 -5 -4
-6 3 -36 -29 -71 -78 -77 -106 -271 -359 -334 -434 -15 -19 -24 -39 -21 -44 4
-6 2 -8 -3 -5 -6 4 -19 -5 -29 -20 -9 -15 -27 -35 -38 -45 -12 -10 -18 -17
-14 -18 3 0 -7 -13 -23 -30 -18 -17 -27 -35 -23 -41 4 -7 3 -9 -3 -6 -6 4 -61
-53 -123 -126 -61 -72 -130 -154 -153 -180 -45 -53 -67 -84 -49 -73 6 3 13 2
17 -3 3 -6 -3 -8 -14 -6 -29 5 -47 -20 -30 -42 12 -16 12 -17 -2 -6 -13 11
-23 2 -66 -55 -77 -101 -134 -195 -129 -209 3 -7 0 -15 -6 -19 -7 -5 -8 -2 -3
7 5 9 5 11 -2 4 -16 -16 -51 -115 -64 -182 -10 -48 -10 -73 -1 -114 7 -29 11
-53 10 -54 -41 -25 -343 -239 -563 -400 -426 -311 -530 -385 -725 -515 -772
-517 -1352 -737 -2170 -826 -220 -24 -674 -24 -870 0 -577 70 -922 237 -1137
548 -195 282 -294 662 -280 1068 7 188 17 264 87 655 56 321 73 435 68 461 -2
12 -27 -18 -80 -96 -136 -204 -238 -409 -337 -673 -76 -202 -100 -308 -146
-637 -62 -446 -123 -621 -258 -746 -222 -206 -602 -259 -1357 -188 -947 88
-1663 346 -2092 752 -116 111 -181 195 -245 317 l-48 90 2 115 c4 370 141 663
451 962 154 148 266 231 697 519 193 128 352 236 355 239 8 9 578 406 765 532
923 624 1595 925 2280 1020 97 13 433 17 477 5 37 -10 49 -53 55 -212 4 -114
0 -165 -35 -425 -78 -567 -107 -867 -122 -1245 -8 -228 -1 -567 16 -730 l8
-70 12 60 c7 33 32 170 54 305 30 175 54 284 85 380 24 74 53 182 65 240 81
395 214 827 375 1220 40 96 87 213 105 260 43 112 119 258 180 345 27 39 91
138 143 220 230 363 572 825 854 1152 440 510 867 746 1456 803 110 10 437 5
562 -10z m36295 -5 c529 -80 923 -312 1333 -788 282 -327 624 -789 854 -1152
52 -82 117 -181 144 -220 63 -90 147 -257 208 -415 27 -69 78 -197 113 -285
133 -327 263 -759 338 -1125 12 -58 41 -166 65 -240 31 -97 55 -204 85 -380
22 -135 46 -272 54 -305 l12 -60 8 70 c17 163 24 502 16 730 -15 378 -44 678
-122 1245 -35 260 -39 311 -35 425 6 159 18 202 55 212 44 12 380 8 477 -5
685 -95 1357 -396 2280 -1020 187 -126 757 -523 765 -532 3 -3 163 -111 355
-239 431 -288 543 -371 697 -519 309 -298 446 -590 451 -958 l2 -111 -47 -94
c-61 -122 -126 -206 -246 -321 -429 -406 -1145 -664 -2092 -752 -755 -71
-1135 -18 -1357 188 -135 125 -196 300 -258 746 -46 329 -70 435 -146 637 -99
264 -201 469 -337 673 -53 78 -78 108 -80 96 -5 -26 12 -140 68 -461 70 -391
80 -467 87 -655 11 -325 -49 -634 -172 -881 l-43 -85 -104 17 c-190 32 -302
40 -553 39 -513 -1 -851 -56 -1305 -212 -200 -69 -390 -152 -621 -270 l-196
-100 -78 22 c-332 93 -706 260 -1057 471 -273 164 -527 339 -1048 720 -124 91
-287 209 -362 263 -76 53 -138 100 -138 103 0 4 6 14 14 22 20 24 36 79 36
125 -1 74 -34 191 -51 180 -5 -3 -6 2 -3 10 6 17 -22 74 -67 136 -19 25 -34
48 -34 51 -1 21 -194 265 -207 261 -5 -1 -7 2 -4 7 3 5 -16 32 -43 60 -27 28
-47 51 -44 51 2 0 -21 29 -52 65 -32 36 -62 62 -68 58 -6 -3 -7 -1 -3 5 8 13
-102 149 -116 145 -4 -2 -7 0 -6 5 4 15 -23 52 -34 46 -7 -4 -8 -3 -4 5 4 6 0
14 -8 17 -9 3 -16 11 -16 16 0 15 -52 73 -62 70 -5 -1 -7 1 -4 6 3 5 -34 58
-81 118 -47 60 -95 122 -106 138 -12 16 -35 43 -52 60 -16 16 -24 26 -17 22 8
-5 -12 27 -44 70 -32 44 -62 81 -66 82 -4 2 -8 8 -8 14 0 6 -16 30 -35 54 -19
23 -35 47 -35 52 0 5 -11 20 -24 34 -12 14 -26 33 -29 43 -4 9 -12 13 -19 9
-7 -4 -10 -4 -6 1 10 10 -16 59 -63 121 -22 28 -39 55 -39 60 0 13 -76 125
-81 119 -3 -2 -5 4 -6 14 -1 10 -27 60 -59 112 -31 52 -72 124 -90 161 l-33
67 39 39 c22 22 40 37 40 35 0 -3 7 0 15 7 8 7 12 17 8 23 -3 5 -1 7 4 4 12
-8 110 100 105 115 -1 5 2 7 7 3 10 -6 37 33 33 47 -1 5 2 7 7 5 5 -1 20 12
33 30 80 109 108 155 102 165 -4 6 -3 8 3 5 6 -4 14 -1 17 6 3 6 16 28 28 48
100 160 240 427 232 442 -4 7 -3 9 1 4 5 -4 30 35 57 88 51 101 55 110 36 99
-7 -4 -8 -3 -4 5 4 6 11 9 15 7 7 -5 71 133 71 153 0 5 9 26 21 45 11 20 22
41 23 48 3 13 7 22 49 123 46 110 128 365 121 377 -5 7 -3 8 6 3 10 -6 12 -3
7 14 -3 13 -3 20 1 16 4 -4 12 10 18 32 12 45 58 82 324 262 275 186 533 328
792 435 173 71 544 146 843 170 102 8 444 -4 545 -19z m-34489 -2 c13 -16 12
-17 -3 -4 -17 13 -22 21 -14 21 2 0 10 -8 17 -17z m32126 -198 c0 -8 -4 -12
-9 -9 -5 3 -6 10 -3 15 9 13 12 11 12 -6z m-1992 -214 c3 -5 2 -12 -3 -15 -5
-3 -9 1 -9 9 0 17 3 19 12 6z m-21272 -438 c-3 -7 -6 -13 -8 -13 -2 0 -5 6 -8
13 -3 8 1 14 8 14 7 0 11 -6 8 -14z m-8629 -171 c3 -5 -1 -9 -9 -9 -8 0 -12 4
-9 9 3 4 7 8 9 8 2 0 6 -4 9 -8z m46 -97 c-5 -7 -9 -14 -7 -16 1 -2 0 -3 -2
-1 -11 7 -7 29 5 29 9 0 11 -4 4 -12z m29996 0 c-1 -8 -5 -17 -8 -21 -5 -4 -4
16 1 34 3 9 9 -1 7 -13z m-26456 -111 c0 -8 -19 -13 -24 -6 -3 5 1 9 9 9 8 0
15 -2 15 -3z m19020 -543 c0 -5 -7 -12 -16 -15 -14 -5 -15 -4 -4 9 14 17 20
19 20 6z m-13583 -69 c-10 -10 -14 -22 -10 -27 5 -4 2 -5 -5 -1 -11 6 -10 12
4 27 9 10 19 19 22 19 3 0 -2 -8 -11 -18z m-8566 -169 c13 -16 12 -17 -3 -4
-17 13 -22 21 -14 21 2 0 10 -8 17 -17z m27909 -188 c14 -19 14 -19 -2 -6 -10
7 -18 18 -18 24 0 6 1 8 3 6 1 -2 9 -13 17 -24z m2705 -104 c3 -5 2 -12 -3
-15 -5 -3 -9 1 -9 9 0 17 3 19 12 6z m-36395 -170 c0 -5 -18 -46 -40 -92 -45
-94 -46 -89 -4 23 25 68 44 97 44 69z m42224 -69 c42 -112 41 -117 -4 -23 -41
84 -46 101 -32 101 4 0 20 -35 36 -78z m-6039 -41 c3 -5 2 -12 -3 -15 -5 -3
-9 1 -9 9 0 17 3 19 12 6z m-21580 -59 c-3 -3 -11 0 -18 7 -9 10 -8 11 6 5 10
-3 15 -9 12 -12z m21340 -352 c-3 -5 -12 -10 -18 -10 -7 0 -6 4 3 10 19 12 23
12 15 0z m-29751 -108 c3 -5 -1 -9 -9 -9 -8 0 -12 4 -9 9 3 4 7 8 9 8 2 0 6
-4 9 -8z m21330 -75 c4 4 4 -1 0 -12 -5 -11 -9 -14 -12 -7 -2 7 -7 10 -11 8
-4 -3 -8 1 -8 9 0 10 4 12 12 5 7 -5 15 -7 19 -3z m-12684 -371 c0 -2 -8 -10
-17 -17 -16 -13 -17 -12 -4 4 13 16 21 21 21 13z m16855 -26 c10 -11 16 -20
13 -20 -3 0 -13 9 -23 20 -10 11 -16 20 -13 20 3 0 13 -9 23 -20z m2580 -110
c-3 -5 -12 -10 -18 -10 -7 0 -6 4 3 10 19 12 23 12 15 0z m-2500 -9 c3 -5 2
-12 -3 -15 -5 -3 -9 1 -9 9 0 17 3 19 12 6z m2865 -216 c14 -19 14 -19 -2 -6
-10 7 -18 18 -18 24 0 6 1 8 3 6 1 -2 9 -13 17 -24z m158 -192 c43 -48 79 -80
86 -76 6 3 8 3 4 -2 -9 -9 50 -80 66 -80 6 -1 10 -6 9 -11 -2 -11 55 -71 72
-76 6 -2 9 -6 8 -9 -2 -6 137 -138 251 -237 32 -28 63 -49 69 -45 5 3 7 1 4
-4 -4 -6 1 -17 10 -24 9 -8 14 -9 10 -3 -3 6 0 11 7 11 8 0 12 -5 10 -12 -3
-6 7 -22 20 -34 22 -21 28 -22 43 -10 16 13 17 12 5 -3 -12 -14 -5 -23 54 -67
36 -28 71 -48 77 -44 5 3 7 2 4 -4 -6 -10 112 -103 131 -103 6 0 12 -4 14 -8
2 -5 44 -35 93 -68 177 -115 227 -144 239 -137 6 3 8 2 3 -2 -10 -12 144 -96
163 -89 8 3 11 2 7 -2 -4 -4 7 -16 23 -26 35 -21 44 -23 34 -6 -4 7 -3 8 5 4
6 -4 9 -11 6 -15 -6 -11 75 -42 88 -34 6 3 7 1 4 -4 -10 -16 228 -117 406
-173 31 -10 57 -16 57 -13 0 3 6 1 13 -5 27 -22 310 -97 333 -88 8 3 13 2 10
-3 -7 -11 68 -21 154 -21 l67 0 129 -111 c322 -277 679 -634 988 -987 223
-254 374 -459 474 -643 86 -156 158 -381 163 -506 l3 -52 -115 -118 c-342
-353 -586 -716 -641 -954 -11 -49 -16 -55 -78 -94 -228 -148 -624 -319 -1006
-435 -347 -105 -1163 -295 -1494 -347 -162 -25 -507 -26 -600 0 -165 44 -276
130 -339 260 -35 71 -75 206 -86 286 l-7 54 38 -6 c92 -16 234 -19 318 -8 234
32 375 143 415 329 13 64 15 226 2 218 -5 -4 -7 3 -4 13 3 11 -3 46 -12 78
-19 68 -95 233 -107 233 -4 0 -8 7 -8 15 0 8 -4 15 -9 15 -5 0 -11 9 -14 21
-3 12 -10 18 -16 14 -7 -3 -8 0 -5 9 3 9 2 16 -3 16 -6 0 -14 9 -19 20 -5 11
-28 41 -51 68 -23 26 -63 70 -89 99 -25 29 -51 51 -58 50 -6 -1 -10 3 -9 10 1
6 -23 33 -55 59 -114 96 -106 79 -98 206 4 63 2 157 -4 212 -12 119 -41 243
-51 224 -12 -21 -55 -183 -80 -298 -12 -58 -25 -108 -29 -113 -3 -4 -48 24
-100 63 -51 38 -97 70 -100 70 -4 0 -19 11 -34 25 -15 14 -32 22 -38 19 -7 -4
-8 -2 -4 4 4 7 1 12 -8 12 -8 0 -19 6 -23 13 -13 22 -85 67 -96 60 -6 -3 -7
-1 -4 4 4 6 -24 31 -61 57 -37 25 -95 66 -128 90 -34 25 -64 42 -67 40 -3 -3
-8 0 -13 7 -5 8 -3 10 7 4 24 -13 -1 9 -80 73 -41 34 -79 58 -84 55 -6 -3 -7
-1 -4 4 8 12 -63 70 -78 65 -5 -2 -7 0 -2 4 8 8 -20 44 -35 44 -5 0 -23 16
-40 36 -24 27 -33 32 -40 22 -8 -10 -9 -9 -5 3 3 10 -6 28 -25 45 -17 16 -28
24 -24 17 3 -6 1 -15 -5 -19 -8 -4 -9 -3 -5 5 4 7 -30 48 -86 105 -51 52 -142
149 -202 215 -60 67 -114 121 -119 121 -6 0 -8 3 -4 6 7 7 -172 220 -182 217
-4 -1 -8 3 -8 10 0 7 -51 80 -113 162 -110 146 -142 186 -125 156 5 -9 4 -12
-3 -7 -6 4 -9 12 -6 19 2 7 -6 24 -18 37 -13 14 -22 28 -20 33 1 4 -5 10 -13
13 -8 3 -13 9 -10 14 2 4 -4 16 -13 26 -10 10 -35 47 -56 82 -20 34 -45 70
-54 79 -9 9 -17 19 -17 22 -1 13 -49 91 -57 91 -4 0 -8 5 -8 11 0 11 -142 255
-162 278 -7 8 -13 20 -14 26 -1 6 -33 69 -72 140 -38 72 -91 173 -117 225 -26
52 -52 101 -58 109 -7 7 -12 19 -12 25 0 18 -127 290 -139 298 -8 5 -7 8 1 8
6 0 49 -53 95 -117 92 -130 131 -176 142 -166 4 4 5 1 2 -7 -4 -8 4 -26 16
-40 13 -14 19 -19 13 -10 -9 13 -8 13 8 1 9 -8 15 -16 13 -19 -10 -9 15 -43
26 -36 6 4 8 3 5 -3 -11 -17 219 -286 236 -276 5 3 7 1 4 -4 -10 -15 73 -105
90 -99 8 3 11 1 8 -4 -8 -13 172 -193 185 -185 5 3 7 0 4 -8 -6 -17 84 -100
99 -90 5 3 7 2 4 -4 -7 -11 100 -110 114 -105 5 1 8 -2 7 -7 -2 -6 64 -64 147
-130 144 -116 150 -119 170 -103 11 9 14 10 8 2 -7 -8 -13 -17 -13 -21 0 -8
217 -164 228 -164 4 0 17 -9 30 -20 12 -11 26 -20 30 -20 3 0 17 -10 31 -22
13 -13 30 -23 37 -23 7 0 14 -4 16 -9 2 -5 10 -11 18 -13 8 -2 21 -9 29 -16
31 -29 92 -62 103 -56 6 4 8 3 5 -3 -11 -17 445 -269 465 -257 7 5 8 2 3 -6
-6 -10 -4 -12 9 -7 9 4 15 3 12 -2 -3 -4 51 -34 119 -66 110 -51 127 -56 142
-44 16 12 17 12 5 -2 -11 -14 -6 -19 40 -38 29 -12 61 -26 70 -31 22 -13 31
-13 23 -1 -3 5 -1 13 5 16 6 4 10 3 9 -2 -4 -24 9 -33 94 -66 243 -96 283
-110 297 -112 8 -1 25 -7 37 -13 12 -7 32 -14 45 -16 13 -3 25 -6 28 -7 3 -1
10 -3 15 -3 6 -1 19 -7 31 -13 43 -24 259 -81 271 -72 7 7 14 6 19 -2 5 -8 3
-9 -6 -4 -9 5 -11 4 -6 -4 4 -7 15 -11 24 -9 10 1 23 -1 29 -5 7 -4 32 -10 55
-12 24 -2 43 -4 43 -5 0 -3 31 -10 105 -25 101 -21 342 -29 422 -15 84 15 158
39 158 52 0 6 3 8 6 5 10 -9 46 12 39 23 -3 6 0 7 8 4 21 -8 102 88 121 143
17 48 23 223 9 237 -5 4 -9 12 -9 17 -1 5 -3 10 -4 12 -1 1 -3 13 -4 27 -6 58
-69 205 -85 196 -4 -3 -7 5 -7 17 1 13 -4 21 -12 19 -8 -1 -11 2 -7 8 9 14
-34 82 -47 74 -7 -5 -8 -2 -4 5 9 15 -102 164 -115 155 -5 -3 -8 -1 -7 4 4 12
-60 93 -70 89 -4 -1 -8 3 -10 8 -5 18 -65 74 -76 72 -6 -1 -10 3 -9 9 3 19
-205 197 -223 190 -8 -3 -12 -11 -8 -17 4 -8 3 -9 -5 -5 -9 6 -9 11 1 23 10
13 4 22 -37 59 -46 40 -74 56 -61 36 3 -5 -1 -9 -9 -9 -10 0 -12 4 -5 13 8 8
-17 33 -92 93 -57 44 -111 88 -120 97 -10 9 -22 13 -30 8 -7 -4 -10 -4 -6 1
10 11 -11 37 -23 29 -5 -3 -8 -2 -7 3 3 8 -63 73 -74 73 -2 0 -44 38 -94 84
-49 46 -93 82 -98 79 -5 -4 -6 -1 -3 4 4 6 -17 33 -46 60 -28 27 -83 84 -120
126 -38 43 -74 74 -79 70 -7 -3 -8 -1 -4 6 8 12 -70 108 -85 103 -5 -1 -8 4
-6 10 1 7 -3 12 -9 11 -7 -1 -11 3 -10 10 2 18 -62 89 -74 82 -5 -3 -7 0 -5 7
4 11 -85 141 -115 168 -23 21 -133 187 -140 210 -5 16 -11 83 -15 147 -5 95
-4 114 6 98 7 -11 46 -57 87 -102z m-27338 -170 c-7 -76 -16 -146 -21 -155 -5
-9 -43 -60 -84 -113 -42 -53 -72 -101 -69 -107 4 -6 3 -8 -3 -5 -14 9 -156
-160 -147 -175 4 -6 3 -8 -3 -5 -6 4 -30 -15 -53 -41 -24 -26 -89 -95 -146
-153 -57 -58 -102 -109 -99 -112 3 -4 2 -5 -2 -2 -9 7 -84 -66 -77 -76 2 -4
-1 -11 -7 -15 -8 -4 -9 -3 -5 4 14 23 -10 12 -37 -16 -15 -16 -24 -32 -20 -37
5 -4 3 -5 -4 -1 -6 3 -39 -17 -75 -47 -35 -30 -100 -83 -145 -119 -45 -36 -79
-69 -75 -73 4 -5 2 -5 -4 -2 -6 3 -28 -10 -50 -30 -21 -20 -42 -36 -46 -35 -4
1 -18 -12 -31 -28 -14 -16 -27 -27 -30 -24 -2 3 -13 -6 -24 -19 -10 -13 -24
-26 -30 -28 -21 -7 -313 -280 -313 -292 0 -2 -25 -30 -56 -62 -36 -38 -53 -63
-49 -74 3 -8 3 -12 -1 -8 -9 9 -44 -22 -44 -39 0 -7 -6 -17 -14 -21 -22 -13
-78 -112 -70 -124 4 -8 3 -9 -5 -5 -12 8 -55 -77 -86 -172 -14 -42 -15 -55 -5
-67 11 -13 10 -14 -2 -10 -11 5 -17 -3 -21 -27 -8 -54 -6 -180 5 -208 5 -14
10 -27 10 -30 0 -3 8 -21 19 -41 60 -118 243 -192 467 -189 139 3 455 49 472
70 3 3 12 5 20 5 8 -1 35 5 60 12 25 8 55 16 68 19 52 11 247 77 250 85 2 5 7
7 12 4 12 -7 160 47 154 57 -3 4 1 5 9 3 7 -3 35 4 63 17 27 12 51 22 54 23
24 2 160 59 160 67 0 5 3 7 8 4 4 -2 21 1 37 8 17 7 33 14 38 14 25 5 67 34
61 44 -4 7 -3 8 5 4 18 -11 63 2 55 16 -4 6 -3 8 4 4 11 -6 162 58 162 69 0 3
-5 3 -12 -1 -7 -4 -8 -3 -4 4 4 6 13 9 20 6 18 -7 119 44 111 55 -3 5 3 7 14
4 10 -3 22 1 26 8 6 8 4 10 -5 4 -8 -5 -11 -4 -6 3 4 6 13 9 21 6 16 -6 125
52 138 73 5 7 12 11 17 8 18 -11 403 222 394 237 -4 7 -2 8 4 4 14 -8 118 55
151 92 13 15 20 21 16 13 -11 -20 210 138 371 265 15 12 19 29 5 19 -5 -3 -12
-1 -15 4 -4 5 2 8 11 6 21 -3 44 8 75 36 13 10 64 54 113 96 94 80 135 118
132 124 -1 2 0 3 2 1 10 -5 280 272 274 282 -3 6 -2 8 2 3 9 -7 55 30 55 45 0
4 18 24 40 44 22 20 39 38 37 40 -2 2 16 24 40 49 24 25 41 51 37 57 -4 6 -3
8 3 5 6 -4 39 30 74 76 35 45 67 84 71 85 4 2 8 10 8 18 0 8 4 14 8 14 15 0
84 101 78 115 -3 9 0 12 8 9 8 -3 32 22 59 63 55 80 86 120 87 112 0 -3 -34
-80 -76 -170 -42 -90 -77 -172 -77 -181 -1 -9 -4 -15 -7 -13 -4 2 -31 -46 -61
-107 -30 -62 -82 -163 -117 -226 -35 -63 -64 -122 -65 -133 -1 -10 -3 -16 -6
-13 -2 2 -12 -8 -22 -23 -13 -20 -15 -30 -7 -40 8 -10 7 -12 -5 -7 -11 4 -20
-4 -31 -24 -13 -26 -13 -31 2 -47 15 -16 15 -17 1 -7 -14 10 -20 10 -34 -4 -9
-9 -14 -25 -12 -35 3 -10 0 -17 -5 -16 -5 1 -15 -7 -21 -18 -7 -11 -14 -22
-17 -25 -13 -12 -60 -91 -60 -99 0 -5 -3 -11 -7 -13 -10 -4 -135 -195 -134
-202 1 -3 -7 -14 -16 -24 -34 -36 -238 -325 -235 -334 1 -5 -2 -7 -7 -3 -10 6
-37 -33 -33 -47 1 -5 -2 -8 -7 -8 -5 0 -28 -23 -51 -50 -37 -44 -41 -52 -29
-68 12 -15 12 -16 -2 -5 -13 11 -30 -4 -112 -99 -53 -61 -94 -115 -91 -120 3
-5 2 -7 -3 -6 -4 1 -110 -99 -234 -222 -204 -203 -338 -330 -348 -330 -4 0
-123 -100 -136 -115 -5 -7 -20 -17 -33 -24 -12 -7 -20 -17 -16 -23 4 -6 3 -8
-3 -5 -5 3 -52 -25 -104 -64 -107 -79 -149 -112 -132 -104 6 3 14 1 18 -4 3
-6 -4 -8 -17 -6 -15 3 -59 -22 -155 -91 -73 -53 -133 -100 -133 -105 0 -5 -6
-9 -13 -9 -19 0 -78 -46 -69 -54 4 -4 2 -6 -4 -4 -18 5 -76 -41 -68 -54 4 -6
3 -8 -3 -5 -6 4 -23 -3 -37 -14 -15 -12 -29 -20 -31 -17 -2 2 -18 69 -35 148
-33 150 -76 315 -89 338 -11 19 -39 -106 -52 -229 -8 -76 -7 -144 1 -252 l12
-147 -77 -75 c-68 -67 -75 -77 -63 -93 11 -15 11 -16 -3 -5 -13 11 -21 7 -48
-21 -22 -22 -31 -39 -26 -48 5 -7 4 -10 0 -5 -10 9 -45 -21 -45 -39 0 -7 -6
-17 -13 -21 -35 -22 -132 -186 -121 -205 4 -6 3 -8 -3 -5 -14 9 -57 -109 -73
-201 l-13 -73 -86 -51 c-240 -143 -524 -345 -716 -507 -49 -42 -152 -136 -228
-210 l-138 -135 -122 28 c-67 15 -213 52 -324 82 -767 206 -1308 479 -1674
844 -141 140 -233 263 -299 395 -72 144 -92 230 -93 390 -1 253 81 480 279
780 258 391 899 1068 1445 1528 53 45 58 46 88 36 76 -27 290 0 486 60 33 10
108 34 168 52 59 18 107 36 107 41 0 4 6 5 14 2 7 -3 20 1 27 9 8 7 20 12 28
9 9 -3 11 0 6 8 -5 8 -4 11 3 6 6 -3 26 0 44 8 212 90 276 121 271 129 -3 6
-1 7 5 4 5 -4 18 -4 27 -1 13 6 14 9 3 16 -9 7 -8 8 6 4 11 -4 30 1 45 11 14
9 51 30 81 45 30 15 69 36 85 45 17 10 51 31 78 46 26 15 45 32 42 37 -3 6 0
7 8 4 15 -5 317 192 317 207 0 5 7 9 15 9 8 0 15 5 15 10 0 6 12 15 26 20 14
6 23 14 20 18 -3 5 1 9 8 9 21 0 256 195 249 207 -3 6 -3 8 2 4 11 -11 36 12
28 26 -3 6 -3 8 2 4 11 -10 47 11 40 23 -4 5 -3 8 2 7 15 -5 134 106 128 120
-3 7 0 10 6 7 14 -9 41 15 35 32 -3 8 -1 11 5 8 14 -9 41 15 35 32 -3 8 -1 11
5 8 14 -9 41 15 35 31 -3 8 0 11 8 8 17 -6 40 22 30 37 -5 8 -3 9 6 4 19 -12
84 63 70 80 -8 10 -8 15 1 21 7 4 9 3 5 -4 -14 -23 12 -20 34 3 13 14 26 23
28 20 3 -3 -1 -67 -8 -142z m2720 19 c0 -13 -12 -22 -22 -16 -10 6 -1 24 13
24 5 0 9 -4 9 -8z m68 -142 c-7 -10 -14 -17 -17 -15 -4 4 18 35 25 35 2 0 -1
-9 -8 -20z m17032 -64 c0 -3 -4 -8 -10 -11 -5 -3 -10 -1 -10 4 0 6 5 11 10 11
6 0 10 -2 10 -4z m8006 -32 c1 -9 0 -13 -4 -10 -3 4 -7 14 -8 22 -1 9 0 13 4
10 3 -4 7 -14 8 -22z m-28331 -63 c3 -5 2 -12 -3 -15 -5 -3 -9 1 -9 9 0 17 3
19 12 6z m2899 -229 c3 -5 -1 -9 -9 -9 -8 0 -12 4 -9 9 3 4 7 8 9 8 2 0 6 -4
9 -8z m22407 -9 c13 -16 12 -17 -3 -4 -17 13 -22 21 -14 21 2 0 10 -8 17 -17z
m-27316 -73 c-3 -5 -12 -10 -18 -10 -7 0 -6 4 3 10 19 12 23 12 15 0z m30862
-45 c0 -8 -4 -12 -9 -9 -5 3 -6 10 -3 15 9 13 12 11 12 -6z m-3482 -5 c3 -6
-1 -7 -9 -4 -18 7 -21 14 -7 14 6 0 13 -4 16 -10z m16 -37 c13 -16 12 -17 -3
-4 -17 13 -22 21 -14 21 2 0 10 -8 17 -17z m-22741 -167 c0 -2 -7 -7 -16 -10
-8 -3 -12 -2 -9 4 6 10 25 14 25 6z m26027 -253 c0 -9 -4 -10 -14 -2 -7 6 -13
12 -13 14 0 1 6 2 13 2 8 0 14 -6 14 -14z m48 -12 c3 -5 2 -12 -3 -15 -5 -3
-9 1 -9 9 0 17 3 19 12 6z m-29150 -70 c3 -5 2 -12 -3 -15 -5 -3 -9 1 -9 9 0
17 3 19 12 6z m-1515 -127 c0 -8 -19 -13 -24 -6 -3 5 1 9 9 9 8 0 15 -2 15 -3z
m3896 -99 c-1 -8 -5 -17 -8 -21 -5 -4 -4 16 1 34 3 9 9 -1 7 -13z m21421 -20
c0 -8 -4 -12 -9 -9 -5 3 -6 10 -3 15 9 13 12 11 12 -6z m2464 -52 c12 -14 12
-16 0 -8 -11 6 -13 4 -8 -9 4 -9 3 -15 -2 -11 -6 3 -9 14 -8 25 2 24 1 24 18
3z m-24006 -32 c3 -5 0 -13 -6 -17 -7 -4 -9 -3 -5 4 3 5 0 13 -6 15 -9 4 -10
6 -1 6 6 1 14 -3 18 -8z m24942 -166 c0 -8 -4 -12 -9 -9 -5 3 -6 10 -3 15 9
13 12 11 12 -6z m-83 -3 c3 -5 -1 -9 -9 -9 -8 0 -12 4 -9 9 3 4 7 8 9 8 2 0 6
-4 9 -8z m-727 -77 c0 -8 -4 -12 -9 -9 -5 3 -6 10 -3 15 9 13 12 11 12 -6z
m-21071 -42 c0 -10 -5 -21 -10 -25 -5 -3 -10 -14 -11 -25 -1 -10 -12 -40 -24
-67 -12 -27 -19 -51 -16 -54 3 -3 -1 -12 -8 -21 -16 -18 -100 -227 -100 -247
0 -8 -4 -14 -9 -14 -5 0 -7 -4 -4 -9 3 -5 -1 -14 -9 -21 -8 -7 -15 -17 -15
-24 0 -10 -24 -62 -72 -158 -11 -21 -16 -43 -12 -50 4 -6 3 -8 -3 -5 -9 5 -37
-41 -38 -63 0 -3 -8 -16 -17 -30 -9 -14 -31 -54 -48 -90 -18 -36 -43 -83 -56
-105 -13 -22 -22 -46 -19 -53 3 -7 1 -11 -4 -8 -7 5 -20 -12 -26 -34 -11 -45
-353 -481 -585 -745 -120 -137 -426 -452 -483 -497 l-37 -30 -113 50 c-114 51
-327 125 -391 138 l-36 6 102 74 c57 41 114 82 128 91 64 44 220 167 220 174
0 5 7 9 15 9 8 0 15 4 15 10 0 5 14 17 30 25 18 9 28 21 24 27 -4 6 -3 8 3 5
12 -7 169 121 165 134 -1 5 2 8 7 7 20 -6 243 200 234 215 -4 6 -1 7 6 2 16
-9 63 34 54 49 -3 6 -2 8 2 3 12 -10 46 23 38 37 -3 6 -2 7 2 3 12 -10 206
183 198 197 -3 6 -2 8 2 3 11 -10 46 23 38 36 -3 5 -2 7 4 4 10 -7 90 83 85
96 -1 5 2 6 7 3 12 -8 77 72 73 88 -2 6 -1 8 3 4 8 -8 92 79 101 105 3 9 9 17
13 17 4 0 27 23 50 50 37 44 41 53 29 68 -12 15 -11 16 4 4 14 -11 22 -5 65
50 26 35 48 70 48 78 1 8 6 14 12 13 11 -2 153 188 153 205 0 5 8 16 17 23 17
14 143 203 143 214 0 7 50 75 55 75 2 0 2 -8 1 -17z m18669 -76 c4 4 5 3 1 -4
-6 -11 48 -97 179 -282 105 -148 117 -162 134 -156 12 5 13 4 4 -6 -9 -9 -4
-22 24 -58 52 -65 80 -91 89 -83 4 4 4 2 0 -5 -6 -11 48 -85 115 -158 15 -16
42 -47 59 -67 18 -21 37 -35 43 -31 6 3 7 1 3 -5 -8 -13 54 -81 250 -276 231
-231 304 -301 304 -293 0 5 12 -5 26 -22 14 -17 31 -28 36 -24 6 3 8 1 5 -4
-4 -6 10 -23 31 -39 20 -15 41 -34 45 -41 4 -7 14 -13 21 -13 8 0 21 -12 31
-26 10 -15 22 -23 31 -20 8 3 13 2 10 -3 -8 -13 41 -54 55 -46 8 5 10 4 5 -3
-4 -7 25 -36 71 -72 43 -34 85 -67 93 -73 62 -49 74 -56 83 -50 5 3 7 2 4 -4
-6 -10 183 -153 202 -153 6 0 11 -4 11 -8 0 -15 240 -173 253 -166 6 4 9 3 4
-1 -12 -14 135 -106 158 -99 14 4 16 3 6 -4 -10 -7 16 -27 98 -76 62 -38 116
-64 123 -60 6 4 8 3 5 -3 -8 -12 101 -75 115 -66 7 3 8 1 4 -5 -4 -7 -3 -12 3
-12 6 0 32 -14 58 -30 26 -17 54 -28 61 -25 7 2 11 1 8 -3 -7 -12 63 -44 76
-36 6 4 8 3 5 -3 -8 -12 141 -86 155 -77 6 4 8 3 5 -3 -8 -12 69 -47 84 -37 7
4 9 3 5 -4 -5 -9 27 -27 44 -24 3 0 12 -5 20 -12 27 -22 98 -48 111 -41 7 5
10 4 6 -2 -10 -16 65 -44 81 -31 9 8 11 7 5 -7 -5 -14 -3 -17 10 -12 8 3 17 2
19 -2 5 -12 158 -72 168 -66 6 3 10 2 10 -4 0 -5 9 -13 21 -16 29 -9 13 -25
-79 -79 -259 -150 -517 -190 -792 -120 -486 122 -1086 523 -1650 1100 -221
226 -278 296 -429 524 -76 115 -142 206 -146 202 -5 -4 -5 -2 -1 5 9 16 -43
95 -57 86 -5 -3 -7 -1 -3 5 7 12 -13 62 -26 62 -4 0 -8 5 -8 10 0 17 -96 180
-103 175 -4 -3 -5 -2 -2 1 8 12 -77 164 -88 157 -6 -3 -7 -1 -3 5 9 14 -68
165 -79 155 -4 -5 -5 -3 -2 4 8 13 -2 45 -12 39 -3 -2 -7 6 -7 17 -1 12 -22
65 -47 117 -25 52 -69 155 -98 228 -36 89 -58 132 -69 132 -11 0 -12 2 -2 8
10 7 9 17 -5 48 -9 21 -17 41 -18 44 -2 8 -15 42 -26 68 -20 51 -7 53 24 4 18
-29 37 -49 42 -45z m126 56 c13 -16 12 -17 -3 -4 -17 13 -22 21 -14 21 2 0 10
-8 17 -17z m3326 -18 c0 -8 -4 -12 -9 -9 -5 3 -6 10 -3 15 9 13 12 11 12 -6z
m-6684 -82 c3 -21 9 -72 13 -113 3 -41 13 -86 21 -99 8 -13 10 -20 4 -17 -15
10 -14 -7 2 -23 8 -10 8 -12 0 -7 -8 5 -11 -3 -7 -26 17 -127 25 -163 35 -167
8 -2 8 -5 0 -11 -10 -6 7 -142 43 -335 2 -11 7 -40 10 -65 12 -85 47 -265 59
-300 6 -19 10 -39 9 -44 -5 -17 51 -265 58 -261 4 3 6 -9 5 -25 -1 -17 2 -30
7 -30 5 0 7 -4 3 -9 -5 -10 9 -91 22 -121 3 -8 7 -18 8 -22 2 -5 4 -11 5 -15
1 -5 1 -16 0 -27 -1 -11 3 -15 9 -12 7 4 9 1 5 -8 -7 -17 42 -224 57 -243 7
-7 8 -13 4 -13 -4 0 -2 -7 5 -15 7 -8 17 -12 24 -8 6 3 4 -2 -5 -13 -15 -18
-14 -28 19 -149 19 -71 39 -131 43 -133 4 -2 4 -12 1 -24 -3 -14 -1 -19 6 -14
6 3 14 1 18 -5 4 -8 3 -9 -4 -5 -15 9 -15 6 -1 -50 7 -28 16 -43 24 -41 6 3
12 -1 12 -9 0 -7 -5 -10 -10 -7 -6 4 -8 -1 -4 -11 4 -10 7 -24 7 -32 0 -9 5
-12 12 -8 6 4 8 3 4 -4 -3 -6 1 -38 10 -71 14 -48 20 -59 36 -56 10 2 16 0 13
-6 -4 -5 -11 -7 -16 -4 -5 4 -9 3 -9 -2 0 -22 84 -272 91 -268 4 3 5 -5 1 -17
-5 -21 -4 -22 14 -8 18 14 18 14 5 -3 -12 -15 -11 -24 4 -65 10 -26 26 -53 34
-60 10 -9 11 -11 2 -6 -11 5 -13 3 -8 -10 4 -10 7 -22 7 -27 0 -6 4 -8 9 -4 5
3 13 0 17 -6 4 -8 3 -9 -4 -5 -14 8 -16 -15 -4 -30 4 -5 16 -35 27 -66 10 -32
22 -58 27 -58 5 0 7 -4 4 -9 -8 -13 19 -73 29 -64 4 5 5 2 1 -5 -5 -8 -1 -19
10 -28 11 -9 13 -12 5 -8 -10 5 -13 3 -9 -7 3 -8 30 -71 59 -142 47 -113 55
-126 73 -121 19 5 19 5 4 -7 -15 -13 -13 -20 15 -84 87 -193 218 -446 229
-439 7 4 8 3 4 -4 -8 -13 52 -132 66 -132 5 0 7 -4 4 -8 -3 -5 4 -21 15 -38
11 -16 31 -51 45 -77 15 -29 29 -45 36 -41 7 4 8 3 4 -5 -8 -12 16 -56 43 -79
13 -11 13 -12 1 -6 -13 7 -13 6 0 -12 8 -10 19 -22 23 -25 5 -3 8 -9 7 -13 -2
-13 72 -126 80 -121 5 3 12 0 16 -6 4 -8 3 -9 -4 -5 -7 4 -12 5 -12 2 0 -12
37 -66 42 -61 2 3 5 -1 5 -8 0 -16 73 -127 84 -127 5 0 9 -5 9 -10 0 -6 7 -22
16 -36 12 -18 20 -22 29 -14 10 8 15 8 21 -1 4 -7 3 -9 -4 -5 -19 12 -23 -13
-6 -39 15 -23 42 -26 28 -3 -4 7 -2 8 5 4 8 -6 9 -11 1 -20 -7 -10 -1 -25 23
-56 17 -24 37 -50 42 -59 32 -53 118 -150 128 -144 7 3 9 3 5 -2 -4 -4 -3 -14
4 -22 6 -7 9 -16 6 -18 -9 -9 -547 -113 -798 -154 -724 -119 -1254 -165 -1930
-165 -435 0 -560 5 -941 41 l-177 16 -7 61 c-50 455 -335 1072 -752 1632 -236
316 -508 581 -818 797 -104 73 -100 59 -64 241 51 254 183 467 575 926 125
146 512 534 672 673 596 519 1305 970 1977 1257 93 40 272 108 286 110 4 0 9
-17 12 -37z m-12083 -75 c1045 -444 2101 -1244 2814 -2133 311 -387 387 -542
431 -878 8 -65 15 -144 15 -175 l0 -57 -152 -90 c-339 -201 -729 -474 -1013
-711 -157 -130 -584 -555 -718 -714 -240 -286 -420 -542 -525 -749 -35 -69
-71 -130 -79 -135 -24 -13 -741 0 -1004 19 -124 9 -302 24 -394 33 l-169 17
-42 125 c-118 347 -396 760 -662 981 l-54 45 37 62 c33 54 36 64 24 80 -13 15
-12 16 3 4 15 -12 23 -1 73 95 32 59 70 131 85 158 33 61 182 376 184 390 1 5
5 16 9 23 5 6 5 17 1 24 -4 6 -3 8 3 5 13 -8 107 217 99 238 -3 9 -2 13 4 10
13 -8 33 42 23 58 -3 7 -2 9 2 4 9 -8 89 193 80 201 -3 3 1 12 9 21 17 20 100
270 92 278 -3 4 0 13 8 22 17 20 47 111 41 121 -3 5 -1 10 4 12 4 1 33 89 64
193 65 224 69 242 59 248 -4 2 -1 2 6 1 6 -2 12 4 13 14 1 20 2 25 29 117 11
39 23 84 25 100 3 17 32 135 65 264 64 252 74 308 52 303 -8 -1 -11 2 -7 7 3
6 11 8 18 5 9 -3 23 49 50 181 21 101 36 189 32 195 -3 5 -2 10 2 10 8 0 36
140 48 237 2 18 6 36 8 40 3 4 8 33 12 63 7 60 9 74 25 169 6 35 9 70 6 77 -3
7 -1 16 5 20 5 3 9 13 8 22 -2 10 0 31 4 47 4 17 9 57 12 90 3 33 8 73 10 90
2 16 6 52 10 80 3 27 8 67 11 87 l6 37 51 -20 c28 -11 94 -39 147 -61z m-7135
3 c3 -5 2 -12 -3 -15 -5 -3 -9 1 -9 9 0 17 3 19 12 6z m3779 -60 c14 -15 15
-21 4 -27 -7 -4 -10 -3 -5 1 4 5 0 17 -10 27 -9 10 -14 18 -11 18 3 0 13 -9
22 -19z m-2739 -61 c-3 -5 -12 -10 -18 -10 -7 0 -6 4 3 10 19 12 23 12 15 0z
m2376 -117 c13 -16 12 -17 -3 -4 -17 13 -22 21 -14 21 2 0 10 -8 17 -17z
m25199 11 c0 -8 -19 -13 -24 -6 -3 5 1 9 9 9 8 0 15 -2 15 -3z m-31076 -22 c3
-5 -1 -9 -9 -9 -8 0 -12 4 -9 9 3 4 7 8 9 8 2 0 6 -4 9 -8z m1802 -88 c1 -9 0
-13 -4 -10 -3 4 -7 14 -8 22 -1 9 0 13 4 10 3 -4 7 -14 8 -22z m35294 6 c236
-22 567 -86 603 -118 10 -9 58 -75 106 -147 270 -399 475 -866 596 -1360 92
-375 112 -589 68 -730 -89 -281 -390 -490 -915 -634 -435 -119 -1097 -231
-1628 -275 -1188 -100 -2067 18 -2554 342 -204 135 -378 376 -403 557 -9 71
74 243 214 437 156 217 519 605 728 779 546 454 1273 855 1845 1017 206 58
485 110 700 130 135 13 505 14 640 2z m-36496 -378 c3 -5 -1 -9 -9 -9 -8 0
-12 4 -9 9 3 4 7 8 9 8 2 0 6 -4 9 -8z m29806 -27 c0 -2 -9 -3 -19 -2 -11 0
-18 5 -15 9 4 6 34 0 34 -7z m-8555 -174 c3 -5 2 -12 -3 -15 -5 -3 -9 1 -9 9
0 17 3 19 12 6z m-16665 -85 c0 -3 -4 -8 -10 -11 -5 -3 -10 -1 -10 4 0 6 5 11
10 11 6 0 10 -2 10 -4z m-2583 -21 c0 -8 -4 -12 -9 -9 -5 3 -6 10 -3 15 9 13
12 11 12 -6z m-93 -11 c3 -8 2 -12 -4 -9 -6 3 -10 10 -10 16 0 14 7 11 14 -7z
m25992 -20 c1 -9 0 -13 -4 -10 -3 4 -7 14 -8 22 -1 9 0 13 4 10 3 -4 7 -14 8
-22z m-19356 -39 c14 -19 14 -19 -2 -6 -10 7 -18 18 -18 24 0 6 1 8 3 6 1 -2
9 -13 17 -24z m14330 11 c0 -2 -8 -10 -17 -17 -16 -13 -17 -12 -4 4 13 16 21
21 21 13z m1915 -95 c3 -5 2 -12 -3 -15 -5 -3 -9 1 -9 9 0 17 3 19 12 6z
m-17064 -25 c68 -6 129 -20 187 -40 31 -11 41 -12 37 -3 -4 7 -1 5 7 -3 7 -9
29 -26 48 -39 19 -13 51 -38 70 -55 19 -17 28 -22 20 -11 -14 18 -14 19 3 6 9
-7 17 -19 17 -25 0 -15 45 -77 52 -71 2 3 5 -1 5 -7 1 -22 49 -98 57 -91 4 5
7 4 6 -2 -1 -5 -1 -13 0 -17 1 -5 3 -11 4 -15 9 -42 30 -82 38 -77 7 4 8 2 4
-4 -4 -6 0 -35 8 -63 39 -131 40 -157 2 -301 -34 -130 -91 -336 -120 -430 -8
-27 -12 -48 -9 -48 3 0 1 -6 -5 -13 -6 -7 -18 -38 -26 -68 -19 -70 -86 -270
-125 -377 -17 -46 -29 -94 -27 -107 3 -18 1 -22 -10 -18 -8 3 -14 0 -14 -6 0
-7 -29 -85 -65 -174 -36 -90 -63 -173 -60 -185 2 -12 -1 -25 -7 -28 -7 -4 -8
-2 -4 4 4 7 3 12 -2 12 -4 0 -19 -26 -31 -57 -12 -32 -32 -75 -43 -96 -11 -21
-17 -45 -14 -53 3 -8 2 -13 -2 -10 -12 7 -144 -263 -136 -277 4 -7 3 -9 -1 -4
-5 4 -39 -50 -75 -120 -37 -71 -92 -171 -123 -223 -40 -70 -52 -98 -45 -108 8
-9 7 -11 -4 -7 -10 4 -22 -5 -35 -27 -11 -18 -43 -71 -72 -117 -29 -45 -48
-81 -43 -77 5 3 9 -1 9 -8 0 -8 -6 -12 -12 -10 -13 5 -78 -89 -78 -112 0 -8
-2 -12 -5 -9 -3 2 -38 -44 -80 -103 -41 -59 -95 -133 -119 -164 -24 -32 -42
-58 -39 -58 3 0 -13 -19 -34 -41 -22 -23 -37 -46 -34 -51 3 -4 2 -7 -3 -6 -11
4 -74 -67 -68 -76 3 -3 2 -4 -2 -1 -10 8 -83 -67 -76 -78 3 -6 2 -7 -4 -4 -5
3 -36 -14 -69 -38 -32 -25 -63 -45 -67 -45 -5 0 -6 -4 -2 -9 3 -5 0 -13 -6
-17 -8 -5 -9 -3 -4 6 6 9 2 10 -16 4 -41 -15 -159 -7 -156 11 1 5 -5 9 -13 7
-8 -2 -12 0 -7 4 4 4 1 17 -7 29 -64 97 -78 467 -32 810 10 74 10 104 2 114
-8 11 -8 13 1 8 11 -7 17 16 28 108 13 108 81 464 126 660 17 77 33 149 34
161 1 11 5 25 9 32 13 22 37 126 31 139 -2 8 0 11 5 8 14 -9 12 9 -2 24 -11
10 -10 11 5 6 9 -4 17 -3 17 1 0 5 3 20 7 33 5 18 3 22 -7 16 -9 -5 -11 -4 -6
4 4 6 11 9 15 7 6 -4 22 42 37 109 1 6 19 54 38 109 20 54 38 108 40 120 3 11
19 59 36 106 17 47 29 95 27 107 -2 12 -1 20 4 18 9 -6 19 25 58 175 41 160
83 369 76 380 -4 6 -2 10 3 10 4 0 16 44 26 98 16 85 26 111 82 209 35 62 64
115 64 118 0 3 12 24 26 46 14 23 20 38 12 34 -7 -3 -6 -1 3 7 24 19 51 78 45
94 -3 9 -1 12 4 9 6 -4 24 24 41 62 55 122 66 137 126 178 32 22 65 42 73 43
8 2 41 10 73 19 54 13 210 32 232 27 6 -2 35 -5 66 -8z m14747 -28 c85 -29
146 -62 171 -92 7 -8 18 -13 24 -9 6 4 7 1 2 -7 -10 -16 155 -351 169 -343 5
3 6 1 2 -5 -4 -7 24 -65 62 -130 l68 -119 38 -189 c68 -340 142 -628 159 -617
6 3 7 1 3 -5 -9 -15 63 -245 80 -255 7 -4 11 -13 8 -21 -4 -11 11 -61 43 -146
3 -8 8 -24 10 -35 2 -11 6 -27 10 -35 3 -8 7 -22 9 -30 2 -8 12 -43 23 -77 11
-34 23 -78 27 -98 3 -19 9 -33 13 -31 3 2 7 -8 7 -22 1 -15 20 -103 41 -197
22 -93 50 -226 63 -295 13 -69 31 -134 39 -144 12 -14 12 -17 2 -11 -11 6 -13
3 -8 -16 4 -14 9 -51 13 -82 4 -31 10 -57 13 -57 3 0 7 -16 8 -35 1 -19 3 -48
6 -65 2 -16 4 -44 5 -61 1 -16 6 -28 11 -25 4 3 6 -5 4 -17 -2 -12 4 -78 13
-147 23 -178 23 -538 0 -640 -10 -41 -18 -81 -19 -87 0 -7 -4 -13 -9 -13 -4 0
-8 -5 -8 -10 0 -20 -52 -60 -86 -66 -19 -3 -55 -1 -80 5 -25 6 -50 8 -57 5 -7
-4 -9 -4 -5 1 9 9 -9 35 -24 35 -5 0 -6 -6 -2 -12 6 -9 3 -9 -9 0 -9 8 -15 17
-14 21 3 10 -109 101 -117 95 -3 -2 -4 -1 -1 3 8 10 -37 53 -48 46 -6 -3 -7
-2 -4 4 3 5 -16 36 -44 69 -84 98 -214 275 -315 429 -52 80 -99 143 -102 141
-4 -3 -8 3 -8 12 0 24 -174 303 -185 296 -5 -3 -6 1 -3 9 6 15 -39 100 -49 92
-4 -3 -5 -2 -2 1 6 9 -65 144 -76 144 -5 0 -8 3 -7 8 4 12 -24 72 -31 67 -4
-2 -8 2 -8 10 0 26 -36 95 -46 88 -6 -3 -7 -1 -3 5 8 14 -14 63 -26 56 -5 -3
-8 -2 -7 3 3 20 -2 43 -13 55 -7 7 -14 20 -16 29 -1 10 -22 59 -46 110 -23 52
-46 102 -49 112 -4 10 -11 15 -17 12 -5 -3 -7 0 -5 7 6 16 -38 131 -47 123 -3
-4 -9 -1 -14 6 -4 8 -3 10 4 5 7 -4 12 -4 12 -1 0 9 -43 109 -49 115 -4 3 -6
10 -6 15 0 23 -48 134 -56 129 -5 -3 -6 1 -4 8 3 8 -2 34 -11 58 -39 109 -172
508 -179 538 -3 18 -10 30 -15 27 -5 -3 -12 0 -16 6 -4 8 -3 9 4 5 16 -10 15
2 -7 70 -10 33 -22 74 -26 92 -3 17 -11 32 -16 32 -6 0 -8 4 -5 9 10 15 -6 71
-17 64 -6 -3 -7 -1 -3 5 8 14 -23 142 -36 142 -5 0 -6 4 -3 10 6 9 -18 116
-35 157 -5 11 -6 24 -3 27 4 3 16 44 28 91 15 60 18 88 11 96 -8 7 -7 9 3 7 9
-2 20 14 31 42 18 49 51 119 63 135 4 6 30 40 57 77 28 37 71 83 97 102 27 19
55 41 63 48 8 7 20 13 25 13 6 1 36 9 68 19 93 28 144 35 277 33 109 -1 136
-5 208 -29z m3172 -134 c0 -8 -19 -13 -24 -6 -3 5 1 9 9 9 8 0 15 -2 15 -3z
m2775 -53 c3 -5 2 -12 -3 -15 -5 -3 -9 1 -9 9 0 17 3 19 12 6z m-20134 -168
c13 -16 12 -17 -3 -4 -17 13 -22 21 -14 21 2 0 10 -8 17 -17z m16854 -12 c3
-5 2 -12 -3 -15 -5 -3 -9 1 -9 9 0 17 3 19 12 6z m-3541 -19 c3 -5 -1 -9 -9
-9 -8 0 -12 4 -9 9 3 4 7 8 9 8 2 0 6 -4 9 -8z m4870 -410 c3 -5 -1 -9 -9 -9
-8 0 -12 4 -9 9 3 4 7 8 9 8 2 0 6 -4 9 -8z m-22977 -43 c24 -9 141 -173 232
-324 86 -145 161 -285 151 -285 -13 0 -225 -239 -222 -251 1 -6 -2 -8 -7 -5
-12 8 -33 -18 -23 -29 4 -5 2 -5 -4 -2 -11 6 -66 -43 -66 -60 0 -4 -3 -7 -8
-6 -8 2 -68 -57 -72 -72 -2 -5 -6 -9 -9 -8 -8 3 -75 -67 -71 -75 1 -4 -1 -7
-5 -8 -5 0 -103 -95 -219 -210 -207 -206 -376 -366 -484 -459 -30 -26 -70 -63
-87 -83 -18 -20 -33 -32 -33 -27 0 5 -49 -39 -109 -99 -61 -61 -107 -114 -104
-119 3 -6 1 -7 -4 -4 -13 8 -96 -100 -88 -113 4 -6 1 -9 -6 -8 -7 2 -28 -26
-46 -62 -33 -61 -33 -65 -16 -78 17 -13 17 -14 -4 -8 -19 6 -22 2 -29 -40 -9
-60 1 -155 18 -165 7 -5 10 -9 5 -9 -11 0 20 -58 56 -103 20 -26 35 -36 45
-32 9 3 13 3 9 -1 -9 -10 23 -45 34 -38 5 3 9 1 9 -4 0 -14 89 -58 165 -82 91
-28 252 -37 381 -20 54 6 103 15 109 18 5 3 21 6 35 7 52 3 210 47 203 58 -4
6 -1 7 6 3 11 -7 122 21 181 46 14 6 32 12 40 13 33 4 180 59 180 67 0 5 4 7
9 4 10 -7 215 72 219 85 2 4 10 5 19 2 12 -5 14 -3 8 7 -5 9 -4 11 3 6 7 -4
33 4 60 17 26 13 69 34 95 46 38 17 47 25 42 39 -5 13 -3 14 5 6 9 -9 18 -8
38 2 50 26 47 14 -13 -46 -163 -165 -449 -300 -842 -399 -1217 -304 -2651
-372 -3476 -166 -229 57 -452 149 -606 249 -158 102 -316 286 -375 437 -57
147 -57 157 22 314 77 155 153 263 341 485 275 324 545 569 901 819 133 93
344 231 354 231 7 0 17 -45 20 -87 6 -67 50 -150 113 -209 104 -99 276 -143
499 -129 63 4 114 10 114 14 0 4 12 6 27 5 22 0 63 6 120 19 7 2 15 6 19 9 3
4 17 4 31 2 15 -3 22 -1 18 6 -3 5 0 7 8 4 13 -5 120 18 157 33 18 8 27 10 41
12 5 0 7 7 3 14 -6 9 -4 9 7 1 10 -9 29 -6 77 10 35 12 60 24 57 28 -4 3 -1 9
6 14 8 4 10 3 5 -4 -10 -16 1 -15 60 5 27 9 53 22 57 30 5 7 13 11 18 7 13 -8
109 25 109 37 0 6 4 8 9 5 8 -5 128 41 205 80 16 8 35 14 41 14 7 0 28 11 48
24 19 13 37 22 40 20 8 -8 297 135 297 147 0 7 3 10 6 6 7 -7 127 51 132 64 2
5 10 9 18 9 8 0 14 5 14 11 0 5 4 8 8 5 5 -3 33 11 63 29 30 19 66 40 81 46
16 6 25 16 21 22 -3 5 -2 7 4 4 13 -8 115 52 108 63 -3 6 0 8 7 5 7 -3 78 37
158 89 152 99 159 101 227 75z m3222 -12 c0 -9 -2 -8 -6 1 -2 6 -10 9 -15 6
-7 -4 -8 -2 -4 5 9 13 26 5 25 -12z m-6079 -62 c0 -2 -9 -3 -19 -2 -11 0 -18
5 -15 9 4 6 34 0 34 -7z m6020 -101 c0 -8 -19 -13 -24 -6 -3 5 1 9 9 9 8 0 15
-2 15 -3z m16643 -181 c144 -190 322 -399 336 -395 7 1 10 -1 7 -6 -8 -13 54
-83 66 -76 6 4 8 2 5 -3 -12 -19 636 -653 667 -653 4 0 24 -18 46 -39 60 -59
116 -101 125 -93 5 4 5 2 2 -4 -7 -12 230 -201 247 -196 6 2 8 0 3 -4 -4 -4
18 -25 49 -47 l56 -40 -7 -51 c-27 -209 -84 -398 -154 -515 -160 -267 -465
-461 -950 -605 l-54 -16 7 108 c8 137 -8 408 -26 430 -10 12 -10 14 0 8 8 -5
12 1 12 19 0 14 -3 24 -7 22 -5 -3 -6 18 -4 45 2 33 0 48 -7 44 -6 -3 -14 -1
-18 5 -4 8 -3 9 4 5 15 -9 15 20 1 99 -11 65 -15 94 -17 139 -2 20 -6 27 -17
23 -8 -4 -17 -2 -20 4 -4 5 -1 8 7 7 10 -2 12 10 10 47 -2 27 -8 55 -13 61 -5
6 -6 13 -3 16 7 8 -58 328 -66 323 -3 -2 -4 10 -2 27 4 23 2 29 -8 23 -9 -5
-11 -4 -6 4 11 17 -3 89 -21 106 -8 9 -10 15 -4 15 11 0 6 42 -7 65 -4 5 -7
16 -8 25 -6 42 -83 301 -93 310 -3 3 -6 10 -7 15 -2 33 -39 133 -47 128 -6 -3
-7 -1 -3 5 4 7 4 17 0 24 -4 7 -9 23 -10 37 -2 13 -7 27 -11 30 -4 3 -8 11 -9
16 -2 33 -39 133 -47 128 -6 -3 -7 -1 -3 5 4 7 4 18 -1 25 -4 6 -8 20 -9 30
-1 9 -2 24 -3 33 -1 11 -7 14 -23 9 -21 -6 -21 -6 -6 6 17 13 17 17 0 72 -10
31 -22 54 -27 50 -4 -5 -5 -3 -1 4 3 7 -9 75 -29 152 -19 77 -35 150 -35 163
0 22 1 22 14 -4 8 -15 61 -89 119 -165z m-16588 153 c-1 -12 -6 -30 -11 -40
-4 -11 -8 -35 -8 -53 -1 -18 -4 -33 -8 -33 -3 0 -9 -15 -13 -32 -4 -18 -22
-83 -40 -145 -24 -83 -30 -114 -21 -123 8 -9 7 -11 -4 -8 -9 2 -14 -4 -14 -14
1 -10 -3 -18 -8 -18 -6 0 -8 -7 -4 -15 3 -8 1 -15 -4 -15 -7 0 -24 -49 -25
-75 0 -5 -3 -12 -6 -15 -11 -9 -49 -133 -43 -141 3 -5 1 -9 -4 -9 -11 0 -33
-70 -26 -82 3 -4 1 -8 -4 -8 -5 0 -14 -19 -21 -42 -7 -24 -28 -92 -46 -153
-19 -60 -35 -121 -37 -135 -2 -14 -6 -27 -9 -30 -9 -8 -50 -182 -44 -188 2 -3
0 -10 -5 -17 -5 -6 -11 -33 -12 -58 -2 -26 -6 -47 -9 -47 -4 0 -12 -28 -18
-62 -7 -35 -17 -86 -23 -114 l-11 -52 -241 -5 c-208 -5 -404 -22 -467 -42 -13
-4 -21 15 -43 97 -15 57 -44 146 -65 199 l-38 97 29 16 c17 10 26 22 22 29 -4
7 -4 9 1 5 11 -10 96 62 88 75 -3 5 -1 7 4 4 12 -8 169 129 166 144 -2 5 1 8
6 6 15 -4 202 174 195 185 -4 6 -3 8 3 5 13 -8 155 137 145 148 -4 5 -2 5 4 2
10 -6 187 175 190 192 0 3 24 31 54 61 29 30 64 71 79 90 14 19 36 46 50 60
13 14 42 50 65 80 22 30 44 57 49 58 4 2 5 8 1 13 -3 5 -1 9 4 9 5 0 28 24 50
54 38 50 40 54 24 72 -14 14 -14 15 -1 6 12 -9 19 -9 31 1 21 17 58 73 53 79
-3 3 1 5 9 5 9 0 13 -9 11 -21z m16520 -15 c3 -5 2 -12 -3 -15 -5 -3 -9 1 -9
9 0 17 3 19 12 6z m-7600 -225 c165 -18 302 -38 445 -66 106 -20 329 -75 334
-82 1 -1 23 -30 48 -63 174 -231 408 -634 553 -955 335 -738 553 -1652 481
-2010 -65 -319 -329 -578 -791 -775 -260 -111 -567 -197 -1105 -308 -681 -142
-1279 -220 -2035 -269 -253 -16 -1023 -16 -1240 0 -1046 77 -1721 301 -2115
702 -146 148 -251 325 -305 514 l-25 89 44 109 c130 319 430 713 911 1194 137
137 302 293 365 345 467 387 1003 733 1565 1009 755 371 1334 528 2155 584
113 8 580 -4 715 -18z m-13105 -32 c0 -8 -19 -13 -24 -6 -3 5 1 9 9 9 8 0 15
-2 15 -3z m-2045 -64 c-3 -5 -12 -10 -18 -10 -7 0 -6 4 3 10 19 12 23 12 15 0z
m27151 -40 c0 -12 -4 -16 -9 -11 -5 5 -6 14 -3 20 10 15 12 14 12 -9z m-4096
-5 c0 -2 -9 -3 -19 -2 -11 0 -18 5 -15 9 4 6 34 0 34 -7z m4166 0 c-1 -8 -5
-17 -8 -21 -5 -4 -4 16 1 34 3 9 9 -1 7 -13z m-4131 -44 c-9 -8 -36 -10 -30
-2 2 4 11 8 20 8 8 0 13 -3 10 -6z m3385 -961 c0 -5 -2 -10 -4 -10 -3 0 -8 5
-11 10 -3 6 -1 10 4 10 6 0 11 -4 11 -10z m-21725 -99 c3 -5 2 -12 -3 -15 -5
-3 -9 1 -9 9 0 17 3 19 12 6z m22109 -279 c3 -5 -1 -9 -9 -9 -8 0 -12 4 -9 9
3 4 7 8 9 8 2 0 6 -4 9 -8z m-21119 -14 c2 -2 -6 -50 -17 -108 -10 -58 -17
-115 -15 -127 2 -12 1 -20 -3 -18 -8 5 -35 -187 -47 -330 -5 -49 -8 -196 -8
-325 0 -199 3 -246 19 -305 22 -84 69 -177 109 -217 29 -29 99 -70 114 -66 5
0 16 -2 26 -7 29 -12 111 2 169 29 66 30 120 70 110 81 -4 5 -1 5 6 0 10 -5
46 25 115 96 129 132 138 144 124 159 -9 8 -8 10 4 5 11 -4 28 10 57 49 38 50
40 56 24 66 -15 10 -14 10 4 5 16 -4 26 1 38 20 9 14 15 25 12 25 -2 0 9 14
25 31 16 17 29 35 29 40 0 5 4 9 10 9 20 0 113 -329 150 -535 16 -89 21 -147
18 -225 -3 -93 -7 -113 -35 -173 -93 -196 -343 -342 -758 -442 -422 -101 -830
-163 -1285 -195 -186 -13 -630 -13 -785 0 -669 56 -1068 237 -1223 556 -16 32
-35 80 -41 105 -12 41 -10 51 12 107 102 249 465 664 817 931 383 292 835 533
1215 650 55 17 111 32 125 35 14 2 68 13 120 24 92 20 299 48 410 56 57 4 351
-1 355 -6z m-1658 -122 c0 -8 -6 -12 -15 -9 -11 5 -11 7 0 14 7 5 13 9 14 9 0
0 1 -6 1 -14z m21154 -253 c13 -16 12 -17 -3 -4 -10 7 -18 15 -18 17 0 8 8 3
21 -13z m-18301 -39 c0 -8 -19 -13 -24 -6 -3 5 1 9 9 9 8 0 15 -2 15 -3z
m18793 -245 c-8 -8 -13 -7 -18 2 -5 8 -4 10 3 5 7 -4 12 -2 12 5 0 7 3 9 7 6
4 -4 2 -12 -4 -18z m-23307 -184 c1 -8 -1 -17 -5 -19 -4 -3 -7 6 -7 19 0 25 8
25 12 0z m3304 -475 c6 -11 8 -20 6 -20 -3 0 -10 9 -16 20 -6 11 -8 20 -6 20
3 0 10 -9 16 -20z"/>
<path d="M15422 13600 c0 -19 2 -27 5 -17 2 9 2 25 0 35 -3 9 -5 1 -5 -18z"/>
<path d="M13060 9035 c-11 -13 -10 -14 4 -9 9 3 16 10 16 15 0 13 -6 11 -20
-6z"/>
<path d="M39871 13594 c0 -11 3 -14 6 -6 3 7 2 16 -1 19 -3 4 -6 -2 -5 -13z"/>
<path d="M42850 10866 c0 -2 8 -10 18 -17 15 -13 16 -12 3 4 -13 16 -21 21
-21 13z"/>
<path d="M8053 31366 c-167 -55 -190 -226 -61 -466 112 -209 381 -514 658
-745 460 -383 1032 -707 1848 -1046 118 -49 226 -98 240 -110 15 -11 108 -96
207 -188 99 -93 261 -237 360 -321 294 -250 656 -621 936 -960 447 -540 783
-1036 1344 -1985 618 -1046 890 -1455 1284 -1930 164 -197 540 -573 706 -705
414 -330 832 -523 1266 -585 121 -17 425 -20 549 -5 398 48 767 201 1060 437
97 78 268 256 344 356 260 347 446 800 555 1352 137 692 157 1556 62 2572 -45
470 -50 791 -15 1003 19 122 68 266 109 327 18 26 61 95 96 153 34 58 79 130
99 160 58 86 57 88 -2 37 -116 -99 -252 -168 -591 -299 -765 -296 -1448 -447
-2217 -489 -265 -15 -898 -7 -1230 16 -584 39 -1320 134 -1798 233 l-93 20 7
-47 c4 -25 8 -47 9 -49 5 -6 320 -63 538 -98 222 -35 620 -87 759 -99 l77 -7
31 -82 c56 -145 257 -755 325 -986 96 -326 199 -715 229 -865 78 -395 57 -661
-65 -800 -50 -56 -108 -79 -199 -78 -198 3 -433 154 -786 507 -629 630 -1014
1231 -1482 2317 -44 103 -99 223 -121 268 -23 44 -37 81 -31 81 6 0 59 -12
118 -26 142 -34 543 -124 552 -124 4 0 3 22 -2 48 l-10 48 -171 38 c-439 95
-978 239 -1442 386 -490 155 -1269 441 -1499 549 -46 22 -96 43 -112 47 -56
14 -411 177 -657 301 -588 298 -1021 597 -1366 944 -254 256 -409 475 -457
646 -21 77 -14 123 27 157 43 36 99 48 207 44 81 -3 96 -1 105 14 21 32 -5 41
-135 44 -85 3 -136 0 -165 -10z m7467 -3501 c618 -44 1193 -46 1611 -6 l77 7
-5 -141 c-6 -162 3 -279 57 -685 59 -441 70 -547 77 -755 13 -420 -53 -674
-217 -828 -118 -112 -265 -165 -424 -154 -157 11 -277 76 -420 227 -102 109
-181 231 -276 425 -100 204 -299 703 -400 1000 -101 298 -134 391 -241 678
-49 131 -89 242 -89 248 0 6 8 8 18 5 9 -3 114 -12 232 -21z m3728 -2791 l42
-7 -5 -86 c-4 -47 -8 -93 -10 -101 -3 -8 -7 -35 -9 -60 -6 -52 -23 -174 -31
-210 -2 -13 -11 -63 -20 -111 -22 -132 -86 -384 -132 -524 -126 -388 -333
-742 -582 -999 -145 -149 -283 -250 -461 -339 -245 -123 -483 -188 -752 -205
-517 -34 -1009 126 -1502 490 l-86 63 0 46 c0 72 29 223 67 349 87 291 239
544 461 768 507 509 1323 851 2202 922 74 6 155 12 180 14 67 6 588 -3 638
-10z"/>
</g>
</svg>
